<?xml version="1.0" encoding="UTF-8"?>
<svg width="256" height="256" version="1.1" xmlns="http://www.w3.org/2000/svg" xmlns:cc="http://creativecommons.org/ns#" xmlns:dc="http://purl.org/dc/elements/1.1/" xmlns:rdf="http://www.w3.org/1999/02/22-rdf-syntax-ns#"><g><path d="m52.788 24.042c-15.152 0-27.354 12.202-27.354 27.354v185.98l29.958-27.333h147.81c15.152 0 27.354-12.202 27.354-27.354v-131.29c0-15.152-12.202-27.354-27.354-27.354z" opacity=".2" stop-color="#000000" stroke-linecap="round" stroke-linejoin="round" stroke-width="1.9479" style="paint-order:markers stroke fill"/><rect transform="scale(-1,1)" x="-230.57" y="18.721" width="205.13" height="185.98" ry="27.35" fill="#5865f2" stop-color="#000000" stroke-linecap="round" stroke-linejoin="round" stroke-width="1.9479" style="paint-order:markers stroke fill"/><path d="m56.891 203.34-31.453 28.718v-64.273z" fill="#5865f2"/><path d="m73.081 204.79 6.8376-23.248-24.615 23.248z" opacity=".2"/></g><path d="m87.905 24.051v90.217c0 50.121 80.193 50.121 80.193 0l-0.5424-90.217" fill="none" opacity=".2" stroke="#000" stroke-width="32.077"/><path d="m87.905 18.721v90.217c0 50.121 80.193 50.121 80.193 0l-0.5424-90.217" fill="none" stroke="#fff" stroke-width="32.077"/><path d="m52.793 18.721c-15.152 0-27.354 12.202-27.354 27.354v5.3333c0-15.152 12.202-27.354 27.354-27.354h150.42c15.152 0 27.354 12.202 27.354 27.354v-5.3333c0-15.152-12.202-27.354-27.354-27.354z" fill="#fff" opacity=".1" stop-color="#000000" stroke-linecap="round" stroke-linejoin="round" stroke-width="1.9479" style="paint-order:markers stroke fill"/><metadata><rdf:RDF><cc:Work rdf:about=""><dc:creator><cc:Agent><dc:title>NinStar</dc:title></cc:Agent></dc:creator></cc:Work></rdf:RDF></metadata></svg>
