<?xml version="1.0" encoding="UTF-8"?>
<svg width="1280" height="216" version="1.1" xmlns="http://www.w3.org/2000/svg"><defs><clipPath id="i"><rect x="-27.525" y="3208.9" width="1280" height="216" ry="10.784"/></clipPath><filter id="g" x="-.022817" y="-.13133" width="1.0456" height="1.2627" color-interpolation-filters="sRGB"><feGaussianBlur stdDeviation="11.819466"/></filter><filter id="a" x="-.043407" y="-.27556" width="1.0868" height="1.5511" color-interpolation-filters="sRGB"><feGaussianBlur stdDeviation="12.436519"/></filter></defs><title>© 2022 NinStar</title><g transform="translate(-1930,-412)"><rect x="1930" y="412" width="1280" height="216" ry="10.784" fill="#202225"/><path transform="translate(1957.5,-2796.9)" d="m200.62 3208.9s-37.165 43.03-61.398 56.828c-27.524 15.672-68.095 5.2503-91.094 27.027-32.418 30.696-16.655 91.678-45.045 126.13-1.6889 2.0497-4.2155 4.0767-7.0273 6.0117h1033.7c10.83-12.006 37.054-39.974 55.986-50.754 27.524-15.672 68.095-5.2523 91.094-27.029 32.418-30.695 16.655-91.678 45.045-126.13 3.6333-4.4093 10.862-8.7345 17.385-12.084z" clip-path="url(#i)" fill="#5764f1" filter="url(#g)"/><path d="m2158.1 412s-37.165 43.03-61.398 56.828c-27.524 15.672-68.095 5.2503-91.094 27.027-32.418 30.696-16.655 91.678-45.045 126.13-1.6889 2.0497-4.2156 4.0767-7.0274 6.0117h1033.7c10.83-12.006 37.054-39.974 55.986-50.754 27.524-15.672 68.095-5.2523 91.094-27.029 32.418-30.695 16.655-91.678 45.045-126.13 3.6333-4.4093 10.862-8.7345 17.385-12.084z" fill="#5764f1"/></g><g filter="url(#a)" opacity=".2"><path d="m385.72 135.97c-7.5756-1.0228-13.589-4.9054-16.321-10.538-1.7675-3.6437-1.9148-4.9729-1.9215-17.339-6e-3 -9.6163 0.14242-12.435 0.76899-14.689 1.5738-5.6618 6.0816-10.072 12.517-12.248 3.1226-1.0555 4.482-1.2513 8.5977-1.2378 3.454 0.01125 3.9411 0.05626 5.6823 0.52502 5.6106 1.5101 9.9425 5.014 12.893 10.43l0.80399 1.4753-5.6542 2.2788-5.6543 2.2788-0.39077-0.55753c-1.1824-1.6869-3.4046-3.1185-5.557-3.5801-1.505-0.32273-4.4904-0.12347-5.8324 0.38935-2.0424 0.78048-3.6114 2.2995-4.0473 3.9183-0.12867 0.47782-0.18013 4.4752-0.14478 11.255 0.0539 10.377 0.0603 10.524 0.4767 11.302 1.7894 3.3429 7.3536 4.6151 11.324 2.5893 1.0865-0.55427 2.4217-1.826 3.0259-2.882 0.27779-0.48563 0.52745-0.91348 0.55469-0.95084 0.0272-0.0373 2.7519 1.1773 6.0549 2.6992l6.0052 2.7671-0.30579 0.59424c-1.2921 2.5109-4.6102 6.2403-6.9544 7.816-2.4101 1.6204-5.3079 2.8578-8.0884 3.4536-1.7217 0.36898-5.9531 0.50423-7.8338 0.25037zm252.39 0.12559c-0.15983-0.0385-0.94446-0.17652-1.7436-0.30585-3.0666-0.49642-6.926-2.2081-9.7199-4.3109-1.4151-1.065-5.1975-4.8021-5.1975-5.1352 0-0.0959 1.9225-1.979 4.2723-4.1845l4.2724-4.0101 1.0036 0.90229c3.0644 2.7551 6.6951 4.1915 10.6 4.1938 4.0322 6e-3 6.3931-1.5675 6.3931-4.251 0-2.4614-2.7621-4.1038-8.8725-5.276-6.1905-1.1875-9.8087-2.947-13.006-6.3256-3.0055-3.1751-4.4169-7.1285-4.211-11.797 0.11577-2.6251 0.44164-4.0251 1.4078-6.0484 2.1473-4.4963 6.9059-7.8445 13.058-9.1869 1.6707-0.36466 2.6228-0.44448 5.3277-0.44673 3.6221-0.0059 5.2776 0.22112 7.8747 1.0664 3.5568 1.1577 6.5672 3.0876 9.335 5.9845l1.505 1.5752-3.8357 2.9503c-2.1097 1.6227-4.1468 3.1866-4.5268 3.4755l-0.69118 0.52514-1.1493-0.97767c-3.3589-2.8575-7.8782-4.0738-11.169-3.0057-3.467 1.1254-4.6029 4.9427-2.1196 7.1232 0.99319 0.87197 3.1149 1.7963 5.2616 2.2921 7.3595 1.6996 9.4327 2.3812 12.3 4.0436 1.8228 1.0568 4.1602 3.3073 5.1101 4.92 1.9626 3.3321 2.6919 8.9198 1.6745 12.832-1.9736 7.5892-10.309 13.068-20.343 13.371-1.3852 0.0414-2.6493 0.0444-2.8091 6e-3zm144.37-0.12559c-7.5792-1.0233-13.606-4.9161-16.314-10.538-1.8289-3.7961-2.0022-5.5822-1.8801-19.373 0.0987-11.149 0.13874-11.564 1.3947-14.495 0.99875-2.3299 1.8021-3.5427 3.4897-5.2685 2.4625-2.5183 5.2707-4.1861 8.9116-5.2931 3.3072-1.0054 3.9972-1.0985 8.0399-1.0847 3.4643 0.01184 3.9385 0.05626 5.7152 0.5326 5.5709 1.4944 9.9129 5.0129 12.86 10.422l0.8034 1.4742-11.302 4.5669-0.39367-0.56108c-1.2144-1.7309-3.3731-3.1319-5.5084-3.5751-1.5843-0.32895-4.5243-0.13869-5.8834 0.38071-2.0424 0.78048-3.6114 2.2995-4.0473 3.9183-0.12868 0.47782-0.18008 4.4752-0.14473 11.255 0.0539 10.377 0.0603 10.524 0.4767 11.302 1.7893 3.3429 7.3536 4.6151 11.324 2.5893 1.0864-0.55427 2.4217-1.826 3.0258-2.882 0.27784-0.48564 0.52928-0.91532 0.55877-0.95494 0.0296-0.0397 2.7536 1.1761 6.0538 2.7015l5.9999 2.7736-0.30461 0.59193c-1.2909 2.5086-4.61 6.2385-6.9533 7.8137-2.4101 1.6204-5.3079 2.8578-8.0884 3.4536-1.7216 0.36898-5.9531 0.50423-7.8338 0.25037zm-486.31-27.987v-27.426l13.029 0.07568c12.564 0.07301 13.096 0.0909 14.92 0.50098 6.2598 1.4079 10.197 4.2047 12.45 8.8441 1.6088 3.3131 2.2416 7.2085 1.8426 11.345-0.73477 7.6183-3.9168 12.654-9.3196 14.749-0.63167 0.24498-1.1485 0.50862-1.1485 0.58595 0 0.0774 3.2375 4.2189 7.1949 9.2035 3.957 4.9845 7.2807 9.1715 7.3855 9.3048 0.15225 0.19299-1.5612 0.24214-8.4343 0.24214h-8.625l-12.702-17.436h-2.449v17.436h-14.143zm24.868-2.4159c1.3209-0.49416 2.61-1.6153 3.1879-2.7722 1.775-3.5541 0.23669-7.5602-3.412-8.8855-0.76449-0.27773-1.6827-0.33227-5.706-0.33902l-4.7949-0.0083v12.399h4.8361c4.3881 0 4.9336-0.0367 5.8889-0.39397zm25.309 2.4281v-27.413h13.755v54.827h-13.755zm67.614 0v-27.413h13.949v20.729h15.886v-20.729h13.949v54.827h-13.949v-20.73h-15.886v20.73h-13.949zm66.453-0.0113v-27.425l12.738 0.07497c13.976 0.08219 13.697 0.06076 17.188 1.3237 7.5881 2.7458 12.473 10.435 12.049 18.966-0.43892 8.8292-5.9223 15.713-14.205 17.831-1.9381 0.4957-5.5032 0.76721-10.072 0.76721h-3.7497v15.886h-13.949zm24.604-1.3663c3.8224-1.7931 4.8472-7.6236 1.9564-11.13-0.30763-0.3733-1.0262-0.93729-1.5969-1.2534l-1.0375-0.5747-9.9775-0.12062v13.609l4.8917-0.0605c4.5006-0.0557 4.9616-0.0932 5.7636-0.46947zm23.248 1.3776v-27.413h11.826c7.1291 0 12.565 0.08255 13.689 0.20779 9.0857 1.0131 14.705 5.6582 16.388 13.545 0.51205 2.4007 0.54214 6.8597 0.0634 9.3977-0.86345 4.5792-2.7452 8.0962-5.4966 10.273-1.116 0.88305-3.9262 2.4165-4.4283 2.4165-0.14745 0-0.2682 0.0849-0.2682 0.18855 0 0.10374 3.2382 4.2666 7.196 9.2509 3.9577 4.9842 7.2813 9.1709 7.3856 9.3042 0.15112 0.19299-1.5626 0.2422-8.4319 0.2422h-8.622l-12.707-17.436h-2.4507v17.436h-14.143zm24.868-2.4281c1.3209-0.49416 2.61-1.6153 3.1878-2.7722 1.775-3.5541 0.23675-7.5602-3.412-8.8855-0.76444-0.27767-1.6826-0.33227-5.706-0.33902l-4.7949-0.0083v12.399h4.8361c4.3882 0 4.9336-0.0367 5.889-0.39391zm25.309 2.4282v-27.413h38.165v12.98h-24.217v8.5243h22.279v12.012h-22.279v8.137h24.217v13.174h-38.165zm89.311 0v-27.413h38.165v12.98h-24.217v8.5243h22.279v12.012h-22.279v8.134l24.12 0.0995 0.10185 13.077h-38.171zm45.527 0v-27.413h13.129l6.3913 11.285c3.5152 6.2065 6.5672 11.634 6.7815 12.06 0.21455 0.42624 1.3255 2.998 2.4688 5.7152 2.037 4.8411 2.3103 5.4059 2.516 5.2001 0.0557-0.0557-0.22324-2.0117-0.62041-4.3461l-0.72209-4.2444-0.1195-25.67h13.766v54.831l-13.997-0.10186-6.2237-10.863c-5.8413-10.195-6.367-11.192-8.5486-16.222-1.2829-2.9578-2.4349-5.361-2.5706-5.3625-0.15568 0-0.20939 0.15704-0.14632 0.43305 0.0545 0.23977 0.44875 2.5436 0.87546 5.1197l0.77598 4.6837v22.308h-13.755zm97.448 0v-27.413h38.165v12.98h-24.217v8.5243h22.279v12.012h-22.279v8.137h24.217v13.174h-38.165z" stroke-width=".32716"/><g transform="matrix(.42318 0 0 .42318 -558.77 -486.07)"><path transform="scale(-1,1)" d="m-3431.9 1275.8c18.183 0 32.82 14.637 32.82 32.82v157.54c0 0.0311-0.0045 0.0612-0.0046 0.0923v65.511l-35.903-32.778h-0.0369l-29.409-27.78 8.1692 27.78h-156.14c-18.183 0-32.82-14.642-32.82-32.825v-157.54c0-18.183 14.637-32.82 32.82-32.82h22.902v108.26c0 20.169 8.8986 37.734 21.96 48.618 13.061 10.885 29.363 15.738 45.402 15.738 16.038 0 32.34-4.8539 45.402-15.738 13.061-10.885 21.96-28.45 21.96-48.618v-108.26h22.883zm-61.376 0v108.26c0 9.9039-3.1273 14.896-8.1092 19.048-4.982 4.1516-12.741 6.817-20.76 6.817-8.0193 0-15.778-2.6654-20.76-6.817-4.982-4.1517-8.1092-9.1438-8.1092-19.048v-108.26h57.738z" style="paint-order:markers stroke fill"/></g></g><path d="m385.72 135.97c-7.5756-1.0228-13.589-4.9054-16.321-10.538-1.7675-3.6437-1.9148-4.9729-1.9215-17.339-6e-3 -9.6163 0.14242-12.435 0.76899-14.689 1.5738-5.6618 6.0816-10.072 12.517-12.248 3.1226-1.0555 4.482-1.2513 8.5977-1.2378 3.454 0.01125 3.9411 0.05626 5.6823 0.52502 5.6106 1.5101 9.9425 5.014 12.893 10.43l0.80399 1.4753-5.6542 2.2788-5.6543 2.2788-0.39077-0.55753c-1.1824-1.6869-3.4046-3.1185-5.557-3.5801-1.505-0.32273-4.4904-0.12347-5.8324 0.38935-2.0424 0.78048-3.6114 2.2995-4.0473 3.9183-0.12867 0.47782-0.18013 4.4752-0.14478 11.255 0.0539 10.377 0.0603 10.524 0.4767 11.302 1.7894 3.3429 7.3536 4.6151 11.324 2.5893 1.0865-0.55427 2.4217-1.826 3.0259-2.882 0.27779-0.48563 0.52745-0.91348 0.55469-0.95084 0.0272-0.0373 2.7519 1.1773 6.0549 2.6992l6.0052 2.7671-0.30579 0.59424c-1.2921 2.5109-4.6102 6.2403-6.9544 7.816-2.4101 1.6204-5.3079 2.8578-8.0884 3.4536-1.7217 0.36898-5.9531 0.50423-7.8338 0.25037zm252.39 0.12559c-0.15983-0.0385-0.94446-0.17652-1.7436-0.30585-3.0666-0.49642-6.926-2.2081-9.7199-4.3109-1.4151-1.065-5.1975-4.8021-5.1975-5.1352 0-0.0959 1.9225-1.979 4.2723-4.1845l4.2724-4.0101 1.0036 0.90229c3.0644 2.7551 6.6951 4.1915 10.6 4.1938 4.0322 6e-3 6.3931-1.5675 6.3931-4.251 0-2.4614-2.7621-4.1038-8.8725-5.276-6.1905-1.1875-9.8087-2.947-13.006-6.3256-3.0055-3.1751-4.4169-7.1285-4.211-11.797 0.11577-2.6251 0.44164-4.0251 1.4078-6.0484 2.1473-4.4963 6.9059-7.8445 13.058-9.1869 1.6707-0.36466 2.6228-0.44448 5.3277-0.44673 3.6221-0.0059 5.2776 0.22112 7.8747 1.0664 3.5568 1.1577 6.5672 3.0876 9.335 5.9845l1.505 1.5752-3.8357 2.9503c-2.1097 1.6227-4.1468 3.1866-4.5268 3.4755l-0.69118 0.52514-1.1493-0.97767c-3.3589-2.8575-7.8782-4.0738-11.169-3.0057-3.467 1.1254-4.6029 4.9427-2.1196 7.1232 0.99319 0.87197 3.1149 1.7963 5.2616 2.2921 7.3595 1.6996 9.4327 2.3812 12.3 4.0436 1.8228 1.0568 4.1602 3.3073 5.1101 4.92 1.9626 3.3321 2.6919 8.9198 1.6745 12.832-1.9736 7.5892-10.309 13.068-20.343 13.371-1.3852 0.0414-2.6493 0.0444-2.8091 6e-3zm144.37-0.12559c-7.5792-1.0233-13.606-4.9161-16.314-10.538-1.8289-3.7961-2.0022-5.5822-1.8801-19.373 0.0987-11.149 0.13874-11.564 1.3947-14.495 0.99875-2.3299 1.8021-3.5427 3.4897-5.2685 2.4625-2.5183 5.2707-4.1861 8.9116-5.2931 3.3072-1.0054 3.9972-1.0985 8.0399-1.0847 3.4643 0.01184 3.9385 0.05626 5.7152 0.5326 5.5709 1.4944 9.9129 5.0129 12.86 10.422l0.8034 1.4742-11.302 4.5669-0.39367-0.56108c-1.2144-1.7309-3.3731-3.1319-5.5084-3.5751-1.5843-0.32895-4.5243-0.13869-5.8834 0.38071-2.0424 0.78048-3.6114 2.2995-4.0473 3.9183-0.12868 0.47782-0.18008 4.4752-0.14473 11.255 0.0539 10.377 0.0603 10.524 0.4767 11.302 1.7893 3.3429 7.3536 4.6151 11.324 2.5893 1.0864-0.55427 2.4217-1.826 3.0258-2.882 0.27784-0.48564 0.52928-0.91532 0.55877-0.95494 0.0296-0.0397 2.7536 1.1761 6.0538 2.7015l5.9999 2.7736-0.30461 0.59193c-1.2909 2.5086-4.61 6.2385-6.9533 7.8137-2.4101 1.6204-5.3079 2.8578-8.0884 3.4536-1.7216 0.36898-5.9531 0.50423-7.8338 0.25037zm-486.31-27.987v-27.426l13.029 0.07568c12.564 0.07301 13.096 0.0909 14.92 0.50098 6.2598 1.4079 10.197 4.2047 12.45 8.8441 1.6088 3.3131 2.2416 7.2085 1.8426 11.345-0.73477 7.6183-3.9168 12.654-9.3196 14.749-0.63167 0.24498-1.1485 0.50862-1.1485 0.58595 0 0.0774 3.2375 4.2189 7.1949 9.2035 3.957 4.9845 7.2807 9.1715 7.3855 9.3048 0.15225 0.19299-1.5612 0.24214-8.4343 0.24214h-8.625l-12.702-17.436h-2.449v17.436h-14.143zm24.868-2.4159c1.3209-0.49416 2.61-1.6153 3.1879-2.7722 1.775-3.5541 0.23669-7.5602-3.412-8.8855-0.76449-0.27773-1.6827-0.33227-5.706-0.33902l-4.7949-0.0083v12.399h4.8361c4.3881 0 4.9336-0.0367 5.8889-0.39397zm25.309 2.4281v-27.413h13.755v54.827h-13.755zm67.614 0v-27.413h13.949v20.729h15.886v-20.729h13.949v54.827h-13.949v-20.73h-15.886v20.73h-13.949zm66.453-0.0113v-27.425l12.738 0.07497c13.976 0.08219 13.697 0.06076 17.188 1.3237 7.5881 2.7458 12.473 10.435 12.049 18.966-0.43892 8.8292-5.9223 15.713-14.205 17.831-1.9381 0.4957-5.5032 0.76721-10.072 0.76721h-3.7497v15.886h-13.949zm24.604-1.3663c3.8224-1.7931 4.8472-7.6236 1.9564-11.13-0.30763-0.3733-1.0262-0.93729-1.5969-1.2534l-1.0375-0.5747-9.9775-0.12062v13.609l4.8917-0.0605c4.5006-0.0557 4.9616-0.0932 5.7636-0.46947zm23.248 1.3776v-27.413h11.826c7.1291 0 12.565 0.08255 13.689 0.20779 9.0857 1.0131 14.705 5.6582 16.388 13.545 0.51205 2.4007 0.54214 6.8597 0.0634 9.3977-0.86345 4.5792-2.7452 8.0962-5.4966 10.273-1.116 0.88305-3.9262 2.4165-4.4283 2.4165-0.14745 0-0.2682 0.0849-0.2682 0.18855 0 0.10374 3.2382 4.2666 7.196 9.2509 3.9577 4.9842 7.2813 9.1709 7.3856 9.3042 0.15112 0.19299-1.5626 0.2422-8.4319 0.2422h-8.622l-12.707-17.436h-2.4507v17.436h-14.143zm24.868-2.4281c1.3209-0.49416 2.61-1.6153 3.1878-2.7722 1.775-3.5541 0.23675-7.5602-3.412-8.8855-0.76444-0.27767-1.6826-0.33227-5.706-0.33902l-4.7949-0.0083v12.399h4.8361c4.3882 0 4.9336-0.0367 5.889-0.39391zm25.309 2.4282v-27.413h38.165v12.98h-24.217v8.5243h22.279v12.012h-22.279v8.137h24.217v13.174h-38.165zm89.311 0v-27.413h38.165v12.98h-24.217v8.5243h22.279v12.012h-22.279v8.134l24.12 0.0995 0.10185 13.077h-38.171zm45.527 0v-27.413h13.129l6.3913 11.285c3.5152 6.2065 6.5672 11.634 6.7815 12.06 0.21455 0.42624 1.3255 2.998 2.4688 5.7152 2.037 4.8411 2.3103 5.4059 2.516 5.2001 0.0557-0.0557-0.22324-2.0117-0.62041-4.3461l-0.72209-4.2444-0.1195-25.67h13.766v54.831l-13.997-0.10186-6.2237-10.863c-5.8413-10.195-6.367-11.192-8.5486-16.222-1.2829-2.9578-2.4349-5.361-2.5706-5.3625-0.15568 0-0.20939 0.15704-0.14632 0.43305 0.0545 0.23977 0.44875 2.5436 0.87546 5.1197l0.77598 4.6837v22.308h-13.755zm97.448 0v-27.413h38.165v12.98h-24.217v8.5243h22.279v12.012h-22.279v8.137h24.217v13.174h-38.165z" fill="#fff" stroke-width=".32716"/><g transform="matrix(.42318 0 0 .42318 -558.77 -486.07)"><path transform="scale(-1,1)" d="m-3431.9 1275.8c18.183 0 32.82 14.637 32.82 32.82v157.54c0 0.0311-0.0045 0.0612-0.0046 0.0923v65.511l-35.903-32.778h-0.0369l-29.409-27.78 8.1692 27.78h-156.14c-18.183 0-32.82-14.642-32.82-32.825v-157.54c0-18.183 14.637-32.82 32.82-32.82h22.902v108.26c0 20.169 8.8986 37.734 21.96 48.618 13.061 10.885 29.363 15.738 45.402 15.738 16.038 0 32.34-4.8539 45.402-15.738 13.061-10.885 21.96-28.45 21.96-48.618v-108.26h22.883zm-61.376 0v108.26c0 9.9039-3.1273 14.896-8.1092 19.048-4.982 4.1516-12.741 6.817-20.76 6.817-8.0193 0-15.778-2.6654-20.76-6.817-4.982-4.1517-8.1092-9.1438-8.1092-19.048v-108.26h57.738z" fill="#fff" style="paint-order:markers stroke fill"/></g><g fill="#fff" stroke-width=".52339"><rect x="-69.898" y="-60.012" width="535.95" height="535.95" opacity="0" stop-color="#000000" style="mix-blend-mode:normal;paint-order:markers stroke fill"/><rect x="753.9" y="-447.71" width="535.95" height="535.95" opacity="0" stop-color="#000000" style="mix-blend-mode:normal;paint-order:markers stroke fill"/><rect x="473.4" y="-176.31" width="535.95" height="535.95" opacity="0" stop-color="#000000" style="mix-blend-mode:normal;paint-order:markers stroke fill"/><rect x="960.8" y="13.018" width="535.95" height="535.95" opacity="0" stop-color="#000000" style="mix-blend-mode:normal;paint-order:markers stroke fill"/></g><g fill="#0c0c0c" opacity=".25" style="mix-blend-mode:overlay"><g transform="matrix(.2617 0 0 .2617 155.27 34.936)"><g fill="#0c0c0c"><path d="m391.76-62.583c-28.583 0-52.005 23.414-52.005 51.997 0 28.583 23.422 52.005 52.005 52.005 28.583 0 51.997-23.422 51.997-52.005 0-28.583-23.414-51.997-51.997-51.997zm-3.56 28.674h7.1499l17.785 46.653h-6.5603l-4.2541-11.971h-21.032l-4.2466 11.971h-6.6573zm3.56 6.217-8.5605 23.219h17.151z" color="#000000" fill="#0c0c0c" stroke-linejoin="round" stroke-miterlimit="10.7" style="-inkscape-stroke:none;paint-order:markers stroke fill"/></g></g><g transform="matrix(.2617 0 0 .2617 -21.526 42.005)"><g fill="#0c0c0c"><path d="m228.3-61.095c-28.583 0-52.005 23.422-52.005 52.005 0 28.583 23.422 51.997 52.005 51.997s51.997-23.414 51.997-51.997c0-28.583-23.414-52.005-51.997-52.005zm-19.681 28.674h6.7842l12.934 19.188 12.844-19.188h6.7842l-16.502 24.435v22.218h-6.3439v-22.218z" color="#000000" fill="#0c0c0c" stroke-linejoin="round" stroke-miterlimit="10.7" style="-inkscape-stroke:none;paint-order:markers stroke fill"/></g></g><g transform="matrix(.2617 0 0 .2617 299.16 133.85)"><g fill="#0c0c0c"><path d="m218.99 108.8c-28.583 0-52.005 23.414-52.005 51.997 0 28.583 23.422 51.997 52.005 51.997 28.583 0 51.997-23.414 51.997-51.997 0-28.583-23.414-51.997-51.997-51.997zm-17.845 28.674h6.7767l11.598 17.337 11.65-17.337h6.7842l-15.001 22.405 16.001 24.248h-6.7842l-13.121-19.845-13.218 19.845h-6.814l16.658-24.905z" color="#000000" fill="#0c0c0c" stroke-linejoin="round" stroke-miterlimit="10.7" style="-inkscape-stroke:none;paint-order:markers stroke fill"/></g></g><g transform="matrix(.2617 0 0 .2617 394.26 55.093)"><g fill="#0c0c0c"><path d="m2335.3-104.37c-28.583 0-52.005 23.414-52.005 51.997 0 28.583 23.422 52.005 52.005 52.005s51.997-23.422 51.997-52.005c0-28.583-23.414-51.997-51.997-51.997zm0 11.471a40.525 40.525 0 0 1 40.526 40.526 40.525 40.525 0 0 1-40.526 40.526 40.525 40.525 0 0 1-40.526-40.526 40.525 40.525 0 0 1 40.526-40.526zm-15.658 15.763v48.624h5.7841v-5.2467c1.2083 2.0833 2.7268 3.6363 4.5601 4.6571 1.8542 1 4.065 1.5001 6.6275 1.5001 4.25 0 7.6984-1.6926 10.344-5.0676 2.6667-3.375 3.9929-7.8146 3.9929-13.315 0-5.5-1.3262-9.9322-3.9929-13.307-2.6458-3.375-6.0942-5.0676-10.344-5.0676-2.5625 0-4.7733 0.51662-6.6275 1.5375-1.8333 1-3.3518 2.5365-4.5601 4.6198v-18.935zm15.561 17.591c3.0417 0 5.4282 1.2105 7.1574 3.6272 1.75 2.3958 2.6271 5.7046 2.6271 9.9337 0 4.2292-0.8771 7.5544-2.6271 9.9711-1.7292 2.3958-4.1157 3.5973-7.1574 3.5973s-5.4372-1.2015-7.1872-3.5973c-1.7292-2.4167-2.5898-5.7419-2.5898-9.9711 0-4.2292 0.8606-7.5379 2.5898-9.9337 1.75-2.4167 4.1455-3.6272 7.1872-3.6272z" color="#000000" fill="#0c0c0c" stroke-linejoin="round" stroke-miterlimit="10.7" style="-inkscape-stroke:none;paint-order:markers stroke fill"/></g></g><g transform="matrix(.2617 0 0 .2617 71.506 135.15)"><g fill="#0c0c0c"><path d="m228.3-232.44c-28.583 0-52.005 23.422-52.005 52.005 0 28.583 23.422 51.997 52.005 51.997 28.583 0 51.997-23.414 51.997-51.997 0-28.583-23.414-52.005-51.997-52.005zm-29.697 47.176h59.371c0.60824 0 1.0971 0.48887 1.0971 1.0971v7.4708c0 0.60823-0.48887 1.0971-1.0971 1.0971h-59.371c-0.60824 0-1.0971-0.48888-1.0971-1.0971v-7.4708c0-0.60824 0.48887-1.0971 1.0971-1.0971z" color="#000000" fill="#0c0c0c" stroke-linejoin="round" stroke-miterlimit="10.7" style="-inkscape-stroke:none;paint-order:markers stroke fill"/></g></g><g transform="matrix(.2617 0 0 .2617 -163.35 271.87)"><g fill="#0c0c0c"><path d="m796.09-408.67c-32.977 0-61.64 22.133-61.64 51.997s28.663 51.997 61.64 51.997h106.01c32.977 0 61.647-22.133 61.647-51.997s-28.67-51.997-61.647-51.997zm0 9.9785h106.01c28.622 0 51.669 18.738 51.669 42.019 0 23.28-23.047 42.026-51.669 42.026h-106.01c-28.622 0-51.661-18.746-51.661-42.026 0-23.28 23.04-42.019 51.661-42.019zm38.496 18.688v46.661h29.032v-5.3139h-22.718v-41.347z" color="#000000" fill="#0c0c0c" stroke-linejoin="round" stroke-miterlimit="10.7" style="-inkscape-stroke:none;paint-order:markers stroke fill"/></g></g><g transform="matrix(.15613 0 0 .15613 225.71 205.13)"><path d="m-263.82-318.49c-8.864 0-16 7.1356-16 16v84.726h-84.714c-8.864 0-16 7.1356-16 16v49.2c0 8.864 7.1356 16 16 16h84.714v84.726c0 8.864 7.1356 16 16 16h49.212c8.864 0 16-7.1356 16-16v-84.726h84.726c8.864 0 16-7.1356 16-16v-49.2c0-8.864-7.1356-16-16-16h-84.726v-84.726c0-8.864-7.1356-16-16-16zm24.606 19.452c4.4109 0 7.9685 3.5451 7.9685 7.956v33.938c0 4.4109-3.5576 7.9685-7.9685 7.9685-4.4109 0-7.956-3.5576-7.956-7.9685v-33.938c0-4.4109 3.5451-7.956 7.956-7.956zm-113.91 113.92h33.938c4.4109 0 7.956 3.5451 7.956 7.956 0 4.4109-3.5451 7.9685-7.956 7.9685h-33.938c-4.4109 0-7.9685-3.5576-7.9685-7.9685 0-4.4109 3.5576-7.956 7.9685-7.956zm193.9 0h33.938c4.4109 0 7.956 3.5451 7.956 7.956 0 4.4109-3.5451 7.9685-7.956 7.9685h-33.938c-4.4109 0-7.9685-3.5576-7.9685-7.9685 0-4.4109 3.5576-7.956 7.9685-7.956zm-79.985 79.973c4.4109 0 7.9685 3.5451 7.9685 7.956v33.938c0 4.4109-3.5576 7.9685-7.9685 7.9685-4.4109 0-7.956-3.5576-7.956-7.9685v-33.938c0-4.4109 3.5451-7.956 7.956-7.956z" fill="#0c0c0c" style="paint-order:markers stroke fill"/></g><g transform="matrix(.2617 0 0 .2617 831.34 85.02)"><g fill="#0c0c0c"><path d="m42.568-275.76c-28.583 0-51.997 23.414-51.997 51.997 0 28.583 23.414 52.005 51.997 52.005 28.583 0 52.005-23.422 52.005-52.005 0-28.583-23.422-51.997-52.005-51.997zm0 11.471a40.525 40.525 0 0 1 40.526 40.526 40.525 40.525 0 0 1-40.526 40.526 40.525 40.525 0 0 1-40.526-40.526 40.525 40.525 0 0 1 40.526-40.526zm-0.31346 22.151c-1.875 0-3.7975 0.21026-5.7766 0.62692-1.9792 0.39584-4.0233 1.0011-6.1274 1.8136v5.3139c1.75-0.95834 3.5748-1.6778 5.4706-2.1569 1.8958-0.47916 3.8438-0.72394 5.8438-0.72394 3.1458 0 5.5849 0.73589 7.3141 2.1942 1.75 1.4375 2.6196 3.4741 2.6196 6.12v0.56722h-8.0604c-5.2292 0-9.1687 1.0003-11.815 3.0003-2.625 2-3.9332 4.9663-3.9332 8.9038 0 3.375 1.0528 6.0694 3.157 8.0903 2.125 2 4.9771 3.0003 8.5605 3.0003 2.8333 0 5.2289-0.50013 7.1872-1.5001 1.9583-1.0208 3.5909-2.5918 4.9034-4.7168v5.3139h5.7543v-19.972c0-5.3333-1.2541-9.3089-3.7541-11.934-2.5-2.625-6.2818-3.9407-11.344-3.9407zm3.6272 18.255h5.7169v1.2762c0 3.75-0.96575 6.7598-2.9032 9.0307-1.9167 2.25-4.4699 3.3809-7.6574 3.3809-2.3125 0-4.1463-0.59625-5.5005-1.7838-1.3333-1.2083-2.0002-2.8319-2.0002-4.8736 0-2.5625 0.89515-4.3783 2.6868-5.4408 1.7917-1.0625 5.0118-1.5897 9.6576-1.5897z" color="#000000" fill="#0c0c0c" stroke-linejoin="round" stroke-miterlimit="10.7" style="-inkscape-stroke:none;paint-order:markers stroke fill"/></g></g><g transform="matrix(.2617 0 0 .2617 1000.1 119.75)"><g fill="#0c0c0c"><path d="m539.78-399.6c-32.977 0-61.64 22.133-61.64 51.997s28.663 52.005 61.64 52.005h106.02c32.977 0 61.64-22.141 61.64-52.005s-28.663-51.997-61.64-51.997zm0 9.9785h106.02c28.622 0 51.661 18.738 51.661 42.019 0 23.28-23.04 42.026-51.661 42.026h-106.02c-28.622 0-51.661-18.746-51.661-42.026 0-23.28 23.04-42.019 51.661-42.019zm34.839 18.696v46.653h6.314v-19.718h6.8738c2.5 0 4.466 0.51662 5.9035 1.5374 1.4583 1.0208 2.9587 3.092 4.5004 6.217l5.9707 11.964h6.7767l-6.4036-12.747c-1.2917-2.625-2.5818-4.6871-3.8735-6.1871-1.2708-1.5-2.5865-2.4822-3.9406-2.9406 2.6042-0.75 4.5867-2.0927 5.9408-4.0302 1.375-1.9375 2.0599-4.3691 2.0599-7.3066 0-4.5-1.3082-7.8688-3.9332-10.098-2.625-2.2292-6.608-3.3436-11.941-3.3436zm6.314 5.187h7.9336c3.0417 0 5.3321 0.70137 6.8738 2.0972 1.5625 1.375 2.3435 3.4281 2.3435 6.1573s-0.781 4.8003-2.3435 6.217c-1.5417 1.3958-3.8321 2.0897-6.8738 2.0897h-7.9336z" color="#000000" fill="#0c0c0c" stroke-linejoin="round" stroke-miterlimit="10.7" style="-inkscape-stroke:none;paint-order:markers stroke fill"/></g></g><g transform="matrix(.2617 0 0 .2617 693.99 12.21)"><g fill="#0c0c0c"><path d="m218.99 108.8c-28.583 0-51.997 23.414-51.997 51.997s23.414 52.005 51.997 52.005c28.583 0 52.005-23.422 52.005-52.005s-23.422-51.997-52.005-51.997zm-17.845 28.674h6.7842l11.591 17.345 11.658-17.345h6.7842l-15.001 22.405 16.001 24.248h-6.7842l-13.128-19.845-13.218 19.845h-6.8066l16.651-24.905z" color="#000000" fill="#0c0c0c" stroke-linejoin="round" stroke-miterlimit="10.7" style="-inkscape-stroke:none;paint-order:markers stroke fill"/></g></g><g transform="matrix(.2617 0 0 .2617 494.27 132.85)"><g fill="#0c0c0c"><path d="m391.76 108.8c-28.583 0-52.005 23.422-52.005 52.005 0 28.583 23.422 51.997 52.005 51.997 28.583 0 51.997-23.414 51.997-51.997 0-28.583-23.414-52.005-51.997-52.005zm-16.546 28.674h16.121c4.8125 0 8.5237 1.0003 11.128 3.0003 2.6042 2 3.9033 4.8431 3.9033 8.5306 0 2.8542-0.66685 5.1266-2.0002 6.814s-3.2903 2.7403-5.8737 3.157c3.1042 0.66667 5.5087 2.062 7.2171 4.187 1.7292 2.1042 2.5972 4.737 2.5972 7.9037 0 4.1667-1.4133 7.3868-4.2467 9.6576-2.8333 2.2708-6.869 3.4108-12.098 3.4108h-16.748zm6.314 5.187v14.068h9.3441c3.0833 0 5.3738-0.57821 6.8738-1.724 1.5208-1.1667 2.2763-2.9389 2.2763-5.3139 0-2.3542-0.75549-4.1099-2.2763-5.2766-1.5-1.1667-3.7904-1.7539-6.8738-1.7539zm0 19.188v17.099h10.12c3.3958 0 5.9055-0.70137 7.5305-2.0972 1.6458-1.4167 2.4704-3.5749 2.4704-6.4707 0-2.9167-0.82455-5.0584-2.4704-6.4334-1.625-1.3958-4.1347-2.0972-7.5305-2.0972z" color="#000000" fill="#0c0c0c" stroke-linejoin="round" stroke-miterlimit="10.7" style="-inkscape-stroke:none;paint-order:markers stroke fill"/></g></g><g transform="matrix(.2617 0 0 .2617 737.46 283.77)"><g fill="#0c0c0c"><path d="m263.29-441.3c-28.583 0-52.005 23.422-52.005 52.005s23.422 51.997 52.005 51.997c28.583 0 51.997-23.414 51.997-51.997s-23.414-52.005-51.997-52.005zm-7e-3 14.964 34.966 38.877h-11.583v26.943c0 0.60824-0.48888 1.0971-1.0971 1.0971h-46.079c-0.60824 0-1.1046-0.48887-1.1046-1.0971v-26.943h-10.068zm-10.374 38.25c-0.33058 0-0.59706 0.26648-0.59706 0.59707v15.964c0 0.33059 0.26648 0.59707 0.59706 0.59707h19.248c0.33059 0 0.59707-0.26648 0.59707-0.59707v-15.964c0-0.33059-0.26648-0.59707-0.59707-0.59707z" color="#000000" fill="#0c0c0c" stroke-linejoin="round" stroke-miterlimit="10.7" style="-inkscape-stroke:none;paint-order:markers stroke fill"/></g></g><g transform="matrix(.2617 0 0 .2617 352.32 143.75)"><g fill="#0c0c0c"><path d="m796.09-408.67c-32.977 0-61.64 22.141-61.64 52.005s28.663 51.997 61.64 51.997h106.01c32.977 0 61.647-22.133 61.647-51.997s-28.67-52.005-61.647-52.005zm0 9.9785h106.01c28.622 0 51.669 18.746 51.669 42.026 0 23.28-23.047 42.019-51.669 42.019h-106.01c-28.622 0-51.661-18.738-51.661-42.019 0-23.28 23.04-42.026 51.661-42.026zm38.496 18.696v46.653h29.032v-5.3139h-22.718v-41.34z" color="#000000" fill="#0c0c0c" stroke-linejoin="round" stroke-miterlimit="10.7" style="-inkscape-stroke:none;paint-order:markers stroke fill"/></g></g><g transform="matrix(.15613 0 0 .15613 1257 209.87)"><path d="m-263.81-318.48c-8.864 0-16 7.1356-16 16v84.714h-84.714c-8.864 0-16 7.1356-16 16v49.212c0 8.864 7.1356 16 16 16h84.714v84.726c0 8.864 7.1356 16 16 16h49.2c8.864 0 16-7.1356 16-16v-84.726h84.739c8.864 0 16-7.1356 16-16v-49.212c0-8.864-7.1356-16-16-16h-84.739v-84.714c0-8.864-7.1355-16-16-16zm24.606 19.44c4.4109 0 7.956 3.5576 7.956 7.9685v33.938c0 4.4109-3.5451 7.956-7.956 7.956-4.4109 0-7.9685-3.5451-7.9685-7.956v-33.938c0-4.4109 3.5576-7.9685 7.9685-7.9685zm-113.92 113.92h33.938c4.4109 0 7.9685 3.5576 7.9685 7.9685 0 4.4109-3.5576 7.956-7.9685 7.956h-33.938c-4.4109 0-7.956-3.5451-7.956-7.956 0-4.4109 3.5451-7.9685 7.956-7.9685zm193.91 0h33.926c4.4109 0 7.9685 3.5576 7.9685 7.9685 0 4.4109-3.5576 7.956-7.9685 7.956h-33.926c-4.4109 0-7.9685-3.5451-7.9685-7.956 0-4.4109 3.5576-7.9685 7.9685-7.9685zm-79.985 79.973c4.4109 0 7.956 3.5576 7.956 7.9685v33.938c0 4.4109-3.5451 7.956-7.956 7.956-4.4109 0-7.9685-3.5451-7.9685-7.956v-33.938c0-4.4109 3.5576-7.9685 7.9685-7.9685z" fill="#0c0c0c" style="paint-order:markers stroke fill"/></g><g transform="matrix(.2617 0 0 .2617 1153.4 90.535)"><g fill="#0c0c0c"><path d="m391.76-62.586c-28.583 0-51.997 23.422-51.997 52.005 0 28.583 23.414 51.997 51.997 51.997 28.583 0 52.005-23.414 52.005-51.997 0-28.583-23.422-52.005-52.005-52.005zm-3.56 28.674h7.1574l17.778 46.653h-6.5603l-4.2466-11.964h-21.032l-4.2541 11.964h-6.6573zm3.56 6.217-8.5605 23.219h17.158z" color="#000000" fill="#0c0c0c" stroke-linejoin="round" stroke-miterlimit="10.7" style="-inkscape-stroke:none;paint-order:markers stroke fill"/></g></g><g transform="matrix(.2617 0 0 .2617 983.44 131.1)"><g fill="#0c0c0c"><path d="m228.3-61.09c-28.583 0-51.997 23.414-51.997 51.997 0 28.583 23.414 51.997 51.997 51.997s52.005-23.414 52.005-51.997c0-28.583-23.422-51.997-52.005-51.997zm-19.673 28.667h6.7767l12.941 19.188 12.844-19.188h6.7767l-16.494 24.443v22.218h-6.3439v-22.218z" color="#000000" fill="#0c0c0c" stroke-linejoin="round" stroke-miterlimit="10.7" style="-inkscape-stroke:none;paint-order:markers stroke fill"/></g></g><g transform="matrix(.2617 0 0 .2617 1095.3 177.51)"><g fill="#0c0c0c"><path d="m228.3-232.44c-28.583 0-51.997 23.414-51.997 51.997 0 28.583 23.414 51.997 51.997 51.997s51.997-23.414 51.997-51.997c0-28.583-23.414-51.997-51.997-51.997zm-29.689 47.168h59.364c0.60824 0 1.1046 0.48888 1.1046 1.0971v7.4708c0 0.60824-0.49634 1.0971-1.1046 1.0971h-59.364c-0.60824 0-1.1046-0.48887-1.1046-1.0971v-7.4708c0-0.60823 0.49634-1.0971 1.1046-1.0971z" color="#000000" fill="#0c0c0c" stroke-linejoin="round" stroke-miterlimit="10.7" style="-inkscape-stroke:none;paint-order:markers stroke fill"/></g></g><g transform="matrix(.2617 0 0 .2617 920.73 125.23)"><g fill="#0c0c0c"><path d="m-1953-433.66c-28.583 0-52.005 23.422-52.005 52.005s23.422 51.997 52.005 51.997c28.583 0 51.997-23.414 51.997-51.997s-23.414-52.005-51.997-52.005zm-0.01 14.964 34.966 38.877h-11.583v26.943c0 0.60824-0.4889 1.0971-1.0971 1.0971h-46.079c-0.6083 0-1.1046-0.48887-1.1046-1.0971v-26.943h-10.068zm-10.374 38.25c-0.3306 0-0.5971 0.26648-0.5971 0.59707v15.964c0 0.33059 0.2665 0.59707 0.5971 0.59707h19.248c0.3306 0 0.5971-0.26648 0.5971-0.59707v-15.964c0-0.33059-0.2665-0.59707-0.5971-0.59707z" color="#000000" fill="#0c0c0c" stroke-linejoin="round" stroke-miterlimit="10.7" style="-inkscape-stroke:none;paint-order:markers stroke fill"/></g></g></g></svg>
