<?xml version="1.0" encoding="UTF-8"?>
<svg width="32" height="32" version="1.1" viewBox="0 0 32 32" xmlns="http://www.w3.org/2000/svg" xmlns:cc="http://creativecommons.org/ns#" xmlns:dc="http://purl.org/dc/elements/1.1/" xmlns:rdf="http://www.w3.org/1999/02/22-rdf-syntax-ns#"><g><rect width="32" height="32" fill="#5865f2" stop-color="#000000" style="paint-order:markers stroke fill"/><g transform="matrix(.25 0 0 .25 -.25 0)" fill="#fff"><path transform="translate(1)" d="m37 50-9 40h36v-8c-2.7614 0-5-2.2386-5-5s2.2386-5 5-5v-22zm15.5 7c1.385 0 2.5 1.115 2.5 2.5v4c0 1.385-1.115 2.5-2.5 2.5s-2.5-1.115-2.5-2.5v-4c0-1.385 1.115-2.5 2.5-2.5zm38.5-7 9 40h-36v-8c2.7614 0 5-2.2386 5-5s-2.2386-5-5-5v-22zm-15.5 7c-1.385 0-2.5 1.115-2.5 2.5v4c0 1.385 1.115 2.5 2.5 2.5s2.5-1.115 2.5-2.5v-4c0-1.385-1.115-2.5-2.5-2.5z"/><path d="m49 100 7-5h9v15h-13l-7 5zm32 0-7-5h-9v15h13l7 5z"/><path d="m53 128 2-9 5-4h5v13zm24 0-2-9-5-4h-5v13z"/><path d="m52 43-6-17 8 2 11-9v20h-7zm26 0 6-17-8 2-11-9v20h7z"/></g></g><metadata><rdf:RDF><cc:Work rdf:about=""><dc:creator><cc:Agent><dc:title>NinStar</dc:title></cc:Agent></dc:creator></cc:Work></rdf:RDF></metadata></svg>
