<?xml version="1.0" encoding="UTF-8" standalone="no"?>
<!-- Created with Inkscape (http://www.inkscape.org/) -->

<svg
   width="32"
   height="32"
   viewBox="0 0 32 32"
   version="1.1"
   id="svg5"
   sodipodi:docname="desenho.svg"
   inkscape:version="1.1.2 (0a00cf5339, 2022-02-04)"
   xmlns:inkscape="http://www.inkscape.org/namespaces/inkscape"
   xmlns:sodipodi="http://sodipodi.sourceforge.net/DTD/sodipodi-0.dtd"
   xmlns="http://www.w3.org/2000/svg"
   xmlns:svg="http://www.w3.org/2000/svg"
   xmlns:rdf="http://www.w3.org/1999/02/22-rdf-syntax-ns#"
   xmlns:cc="http://creativecommons.org/ns#"
   xmlns:dc="http://purl.org/dc/elements/1.1/">
  <sodipodi:namedview
     id="namedview12"
     pagecolor="#505050"
     bordercolor="#ffffff"
     borderopacity="1"
     inkscape:pageshadow="0"
     inkscape:pageopacity="0"
     inkscape:pagecheckerboard="1"
     showgrid="false"
     inkscape:current-layer="svg5" />
  <defs
     id="defs2" />
  <g
     id="layer1"
     style="opacity:1">
    <rect
       style="opacity:1;fill:#5865f2;fill-opacity:1;stroke:none;stroke-width:4;stroke-linecap:round;stroke-linejoin:round;paint-order:markers stroke fill;stop-color:#000000"
       id="rect860"
       width="32"
       height="32"
       x="0"
       y="0" />
    <g
       id="g3934"
       transform="matrix(0.25,0,0,0.25,-0.25,0)">
      <path
         id="path1267"
         style="opacity:1;fill:#ffffff;stroke:none;stroke-width:1px;stroke-linecap:butt;stroke-linejoin:miter;stroke-opacity:1"
         d="m 37,50 -9,40 h 36 v -8 c -2.761424,0 -5,-2.238576 -5,-5 0,-2.761424 2.238576,-5 5,-5 V 50 Z m 15.5,7 c 1.385,0 2.5,1.115 2.5,2.5 v 4 C 55,64.885 53.885,66 52.5,66 51.115,66 50,64.885 50,63.5 v -4 C 50,58.115 51.115,57 52.5,57 Z M 91,50 100,90 H 64 v -8 c 2.761424,0 5,-2.238576 5,-5 0,-2.761424 -2.238576,-5 -5,-5 V 50 Z M 75.5,57 C 74.115,57 73,58.115 73,59.5 v 4 c 0,1.385 1.115,2.5 2.5,2.5 1.385,0 2.5,-1.115 2.5,-2.5 v -4 C 78,58.115 76.885,57 75.5,57 Z"
         transform="translate(1)" />
      <path
         style="fill:#ffffff;stroke:none;stroke-width:1px;stroke-linecap:butt;stroke-linejoin:miter;stroke-opacity:1"
         d="m 49,100 7,-5 h 9 v 15 H 52 l -7,5 z m 32,0 -7,-5 h -9 v 15 h 13 l 7,5 z"
         id="path1368"
         sodipodi:nodetypes="cccccccccccccc" />
      <path
         style="fill:#ffffff;stroke:none;stroke-width:1px;stroke-linecap:butt;stroke-linejoin:miter;stroke-opacity:1"
         d="m 53,128 2,-9 5,-4 h 5 v 13 z m 24,0 -2,-9 -5,-4 h -5 v 13 z"
         id="path1436" />
      <path
         style="fill:#ffffff;stroke:none;stroke-width:1px;stroke-linecap:butt;stroke-linejoin:miter;stroke-opacity:1"
         d="m 52,43 -6,-17 8,2 11,-9 v 20 h -7 z m 26,0 6,-17 -8,2 -11,-9 v 20 h 7 z"
         id="path1504" />
    </g>
  </g>
  <metadata
     id="metadata6326">
    <rdf:RDF>
      <cc:Work
         rdf:about="">
        <dc:creator>
          <cc:Agent>
            <dc:title>NinStar</dc:title>
          </cc:Agent>
        </dc:creator>
      </cc:Work>
    </rdf:RDF>
  </metadata>
</svg>
