<?xml version="1.0" encoding="UTF-8"?>
<svg id="a" width="20" height="20" version="1.1" viewBox="0 0 20 20" xmlns="http://www.w3.org/2000/svg" xmlns:cc="http://creativecommons.org/ns#" xmlns:dc="http://purl.org/dc/elements/1.1/" xmlns:rdf="http://www.w3.org/1999/02/22-rdf-syntax-ns#"><metadata><rdf:RDF><cc:Work rdf:about=""><dc:creator><cc:Agent><dc:title>NinStar</dc:title></cc:Agent></dc:creator></cc:Work></rdf:RDF></metadata><path transform="matrix(1.0257 0 0 1.0257 -.048463 .22868)" d="m15.051 2.5312-1.0156 0.00586 0.01563 2.7461c-1.0265-0.95353-2.3162-1.5052-3.6465-1.6348-1.3919-0.13562-2.829 0.19002-4.0605 1.0039-2.463 1.6278-3.429 4.7716-2.293 7.4844 1.136 2.7127 4.0548 4.2526 6.957 3.6816 2.9023-0.571 5.0078-3.103 5.0078-6.041v-0.75h-1.5v0.75c0 2.2238-1.5807 4.1343-3.7969 4.5703-2.2161 0.43601-4.4221-0.73293-5.2832-2.7891-0.86106-2.0561-0.13985-4.4143 1.7363-5.6543 1.8199-1.2027 4.2211-1.0101 5.8184 0.44141l-2.7363 0.015625 0.0059 1.0156 4.8184-0.027344z" color="#000000" fill="#fff" stroke-width=".97494" style="-inkscape-stroke:none"/></svg>
