<?xml version="1.0" encoding="UTF-8"?>
<svg width="70" height="24" version="1.1" viewBox="0 0 70 24" xmlns="http://www.w3.org/2000/svg"><path d="m14.103 16.929c-0.6815-0.16164-1.3963-0.77063-1.7291-1.4733l-0.1914-0.40412v-6.1053l0.2223-0.44982c0.2754-0.5571 0.7257-1.0001 1.287-1.266l0.4041-0.19143 1.4504-0.0196 1.4504-0.0197-0.03 9.9652-1.3155 0.01c-0.7235 5e-3 -1.42-0.0152-1.5476-0.0456zm2.0413-4.912-0.015-4.2006h-0.8671c-0.7113 0-0.9204 0.0206-1.1643 0.11465-0.3905 0.15063-0.8212 0.56058-0.9967 0.94887l-0.141 0.31176v2.7805c0 3.1439 0 3.1209 0.47 3.6341 0.4493 0.48747 0.7984 0.59477 1.967 0.60482l0.7628 7e-3zm-1.872-1.1455c-0.581-0.25306-0.7413-1.0324-0.3071-1.4928 0.4707-0.49907 1.2761-0.3696 1.5499 0.24913 0.3493 0.78971-0.4495 1.5892-1.2428 1.2437zm3.7079 6.0486c-0.016-0.0411-0.022-2.2812-0.013-4.9779l0.015-4.9032 0.9493-0.0165c1.0881-0.0189 1.4859 0.0531 2.0024 0.36255 0.4162 0.24943 0.7565 0.63464 0.9882 1.1189l0.1859 0.38867v6.2187c-0.35974 0.9261-1.1715 1.4465-1.8512 1.7913-0.4608 0.11927-2.2329 0.13288-2.2769 0.0175zm2.2474-3.4529c0.2404-0.0668 0.557-0.3667 0.6514-0.61704 0.2791-0.74031-0.4722-1.5442-1.2143-1.2992-0.272 0.0897-0.6181 0.47612-0.6689 0.74646-0.093 0.49361 0.1844 0.97097 0.661 1.1395 0.2914 0.10304 0.306 0.10381 0.5708 0.0303zm28.579 3.3675c-0.2646-0.0557-0.8976-0.36844-1.1492-0.56766-0.7823-0.61966-1.1872-1.7444-0.9812-2.7263 0.2431-1.1587 1.1701-2.0458 2.3404-2.2397 0.5485-0.0909 1.1215 3e-3 1.6731 0.27636 0.4402 0.21751 1.0659 0.76947 1.034 0.9121-0.01 0.0425-0.1918 0.2247-0.4052 0.40491l-0.388 0.32765-0.2345-0.24409c-0.129-0.13424-0.3801-0.31072-0.558-0.39216-0.2726-0.1248-0.391-0.14435-0.7528-0.12433-0.4921 0.0273-0.7724 0.1436-1.0909 0.45293-0.6278 0.60971-0.6433 1.6512-0.034 2.307 0.4595 0.49474 1.3435 0.64106 1.9571 0.32387 0.1674-0.0865 0.3886-0.25324 0.4915-0.37046 0.1029-0.11721 0.2033-0.21311 0.223-0.21311 0.084 0 0.7973 0.63566 0.8009 0.71414 0.01 0.16695-0.649 0.72463-1.113 0.94495-0.4146 0.1969-0.5029 0.2161-1.0579 0.23005-0.3331 8e-3 -0.6727 8.3e-4 -0.7548-0.0162zm-22.902-0.11223c-0.4419-0.10025-1.1789-0.3693-1.2277-0.44819-0.018-0.029 0.069-0.24256 0.194-0.47468 0.1563-0.29123 0.2543-0.41355 0.3162-0.39465 0.049 0.0151 0.2758 0.0976 0.5033 0.18338 0.8123 0.3065 1.908 0.32499 2.3953 0.0404 0.3966-0.23161 0.4258-0.64229 0.061-0.85442-0.099-0.0573-0.6634-0.20117-1.2553-0.31983-1.268-0.25419-1.7481-0.45422-2.0191-0.84136-0.5331-0.76152-0.036-1.7312 1.0746-2.0955 0.5268-0.17285 1.8494-0.15963 2.494 0.0249 0.679 0.19442 0.6524 0.15731 0.4523 0.6317-0.095 0.22598-0.1861 0.42368-0.2018 0.43933-0.016 0.0157-0.1983-0.0274-0.406-0.0957-0.7778-0.2559-1.6133-0.28524-2.1533-0.0757-0.2182 0.0847-0.37 0.32696-0.3227 0.51525 0.056 0.22144 0.3942 0.36381 1.2848 0.54027 1.1894 0.23564 1.728 0.44692 2.0806 0.81597 0.2459 0.25736 0.3177 0.45618 0.3177 0.8804 0 0.69272-0.4469 1.2356-1.2169 1.478-0.4364 0.13743-1.8543 0.16754-2.3709 0.0503zm5.6577-0.02978c-0.2568-0.84951-1.4123-5.1864-1.4123-5.258l1.0995 0.02913c0.31657 1.2059 0.63703 2.4124 0.9713 3.6126l1.1307-3.6123h0.9479c0.34475 1.2123 0.71278 2.4639 1.115 3.6341 0.41029-1.3733 0.6961-2.4779 1.0229-3.6636h1.1045c-0.5522 1.9361-1.0004 3.6112-1.4769 5.2615h-1.2456c-0.33543-1.1472-0.66509-2.366-0.958-3.3063-0.4124 1.13-0.63673 2.0244-0.9944 3.2764zm7.3178-5.2631 1.166 0.0342v5.2022l-1.166 0.0342zm4.1258 1.1438c-0.5481-0.01113-1.0962-0.02227-1.6443-0.0334-0.0125-0.36871-0.0235-0.73746-0.035-1.1062h4.4937c-0.0108 0.36876-0.0232 0.73747-0.035 1.1062-0.54813 0.01113-1.0963 0.02227-1.6444 0.0334v4.1225h-1.1361c1e-3 -1.3742 1e-3 -2.7483 1e-3 -4.1225zm9.9858-1.1395h1.0735c0.0113 0.68764 0.0227 1.3753 0.034 2.0629h2.3917c0.0113-0.68764 0.0227-1.3753 0.034-2.0629h1.0735v5.2619h-1.0764v-2.0928h-2.4487c-0.0113 0.68764-0.0227 1.3753-0.034 2.0629-0.34883 0.01159-0.69767 0.02302-1.0465 0.0345-1e-3 -1.7555-1e-3 -3.511-1e-3 -5.2665zm2.8479-1.3996c-1.1914-0.44356-1.3396-2.0591-0.2476-2.699 0.711-0.4167 1.631-0.15872 2.0267 0.56834 0.4034 0.7411 0.1762 1.5942-0.5355 2.0113-0.3321 0.19467-0.896 0.24882-1.2436 0.11942zm1.047-0.80008c0.2969-0.27695 0.3698-0.63522 0.2015-0.98993-0.3748-0.7898-1.6079-0.49212-1.5958 0.38525 0.01 0.49415 0.3571 0.83051 0.8652 0.83091 0.2489 1.8e-4 0.318-0.0293 0.5291-0.22623zm-32.058-1.9922c0.2093 0.01206 0.4186 0.02413 0.6279 0.0362l0.6427 0.8604 0.6429 0.86041v-1.7507h0.5979v2.7506c-0.18933-0.0013-0.37867-0.0027-0.568-4e-3 -0.44856-0.60334-0.89698-1.2068-1.3454-1.8102v1.815h-0.598zm4.664 0.0061h0.598v2.7506h-0.598zm2.6908-2.8e-4h0.5947c0.4297 0.56798 0.85924 1.1361 1.2888 1.7042 0.0113-0.56805 0.0227-1.1361 0.034-1.7042h0.5947v2.7506h-0.5745c-0.43633-0.58798-0.87267-1.176-1.309-1.7639l-0.06 1.734c-0.18933 0.01227-0.37867 0.02433-0.568 0.0365-7.5e-4 -0.91905-7e-4 -1.8381-7e-4 -2.7572zm5.3519 0.56805c-0.28903-0.01173-0.57807-0.02347-0.8671-0.0352v-0.53291h2.3918v0.53291c-0.28903 0.01174-0.57807 0.02347-0.8671 0.0352-0.0103 0.72751-0.0217 1.455-0.033 2.1825h-0.5925c-0.0108-0.7275-0.0214-1.455-0.0321-2.1825zm3.5575-0.56805h2.1527v0.47478l-1.5249 0.0336-0.036 0.56805h1.5082l-0.036 0.50826-1.465 0.0336v0.59427h1.5547v0.53816h-2.1527c-1e-3 -0.91691-1e-3 -1.8338-1e-3 -2.7507zm4.4847 0h0.588c0.43179 0.56808 0.86365 1.1361 1.2955 1.7042 0.0113-0.56805 0.0227-1.1361 0.034-1.7042h0.5947v2.7506h-0.5895c-0.41802-0.59429-0.87519-1.1788-1.3293-1.734-0.03 0-0.054 0.38503-0.054 0.86702v0.86703h-0.5381c-1e-3 -0.91685-1e-3 -1.8337-1e-3 -2.7506zm4.8832 2.7107c-0.022-0.0219-0.04-0.64279-0.04-1.3797v-1.3398l0.8568 0.0193c0.8227 0.0186 0.8667 0.026 1.1094 0.18676 0.9019 0.59755 0.8342 1.9208-0.1226 2.3976-0.2849 0.142-0.3762 0.15568-1.0381 0.15568-0.3992 0-0.7437-0.0179-0.7656-0.0398zm1.5722-0.65589c0.2299-0.1358 0.3611-0.38355 0.3611-0.68169 0-0.53005-0.4247-0.86331-1.0499-0.82376l-0.2955 0.0187-0.017 0.79229-0.017 0.79228h0.426c0.2871 0 0.4801-0.0319 0.5916-0.0978z" fill="#fff" stroke-width=".059795"/><metadata><rdf:RDF><cc:Work rdf:about=""><dc:creator><cc:Agent><dc:title>NinStar</dc:title></cc:Agent></dc:creator></cc:Work></rdf:RDF></metadata></svg>
