<?xml version="1.0" encoding="UTF-8" standalone="no"?>
<!-- Created with Inkscape (http://www.inkscape.org/) -->

<svg
   width="24"
   height="24"
   viewBox="0 0 24 24"
   version="1.1"
   id="SVGRoot"
   xmlns="http://www.w3.org/2000/svg"
   xmlns:svg="http://www.w3.org/2000/svg"
   xmlns:rdf="http://www.w3.org/1999/02/22-rdf-syntax-ns#"
   xmlns:cc="http://creativecommons.org/ns#"
   xmlns:dc="http://purl.org/dc/elements/1.1/">
  <defs
     id="defs1725">
    <clipPath
       id="clipPath4439-1-0">
      <path
         d="m 76.965,496.958 h 257.093 v 52.963 H 76.965 Z"
         id="path4441-7-0" />
    </clipPath>
  </defs>
  <metadata
     id="metadata2103">
    <rdf:RDF>
      <cc:Work
         rdf:about="">
        <dc:creator>
          <cc:Agent>
            <dc:title>NinStar</dc:title>
          </cc:Agent>
        </dc:creator>
      </cc:Work>
    </rdf:RDF>
  </metadata>
  <path
     id="path1878"
     style="fill:#b8babd;stroke-width:1.04642;stroke-linecap:square;stroke-linejoin:round;stroke-miterlimit:0;paint-order:markers stroke fill;stop-color:#000000;fill-opacity:0.98431373"
     d="m 12,5 a 7,7 0 0 0 -7,7 7,7 0 0 0 7,7 7,7 0 0 0 7,-7 7,7 0 0 0 -7,-7 z m -1.001953,2.84375 h 2.003906 c 0.04433,0 0.08198,0.015579 0.115235,0.048828 0.03325,0.027708 0.05078,0.067314 0.05078,0.1171876 v 1.6542969 c 0,0.044333 -0.01753,0.081985 -0.05078,0.1152344 -0.03325,0.033249 -0.0709,0.050781 -0.115235,0.050781 h -2.003906 c -0.04987,0 -0.09175,-0.017532 -0.125,-0.050781 -0.02771,-0.033249 -0.04102,-0.070901 -0.04102,-0.1152344 V 8.0097658 c 0,-0.049874 0.01331,-0.08948 0.04102,-0.1171877 0.03325,-0.033249 0.07512,-0.048828 0.125,-0.048828 z m -1.0000001,2.72461 h 3.0039061 c 0.04433,0 0.08198,0.01753 0.115235,0.05078 0.03325,0.03325 0.05078,0.07285 0.05078,0.117187 v 5.251953 c 0,0.04987 -0.01753,0.08948 -0.05078,0.117188 -0.03325,0.03325 -0.0709,0.04883 -0.115235,0.04883 h -2.003906 c -0.04987,0 -0.09175,-0.01558 -0.125,-0.04883 -0.02771,-0.02771 -0.04102,-0.06732 -0.04102,-0.117188 v -3.736328 l -0.9999998,-0.02148 v -1.494141 c 0,-0.04433 0.013306,-0.08393 0.041016,-0.117187 0.03325,-0.03325 0.075124,-0.05078 0.125,-0.05078 z" />
  <g
     aria-label="i"
     id="text1824"
     style="font-size:8.31236px;line-height:1.25;text-align:center;text-anchor:middle;stroke-width:0.207809" />
</svg>
