<?xml version="1.0" encoding="UTF-8"?>
<svg id="a" width="24" height="24" version="1.1" viewBox="0 0 24 24" xmlns="http://www.w3.org/2000/svg" xmlns:cc="http://creativecommons.org/ns#" xmlns:dc="http://purl.org/dc/elements/1.1/" xmlns:rdf="http://www.w3.org/1999/02/22-rdf-syntax-ns#"><metadata><rdf:RDF><cc:Work rdf:about=""><dc:creator><cc:Agent><dc:title>NinStar</dc:title></cc:Agent></dc:creator></cc:Work></rdf:RDF></metadata><path d="m12 5a7 7 0 0 0-7 7 7 7 0 0 0 7 7 7 7 0 0 0 7-7 7 7 0 0 0-7-7zm-1.002 2.8438h2.0039c0.04433 0 0.08198 0.015579 0.11524 0.048828 0.03325 0.027708 0.05078 0.067314 0.05078 0.11719v1.6543c0 0.044333-0.01753 0.081985-0.05078 0.11523-0.03325 0.033249-0.0709 0.050781-0.11524 0.050781h-2.0039c-0.04987 0-0.09175-0.017532-0.125-0.050781-0.02771-0.033249-0.04102-0.070901-0.04102-0.11523v-1.6543c0-0.049874 0.01331-0.08948 0.04102-0.11719 0.03325-0.033249 0.07512-0.048828 0.125-0.048828zm-1 2.7246h3.0039c0.04433 0 0.08198 0.01753 0.11524 0.05078 0.03325 0.03325 0.05078 0.07285 0.05078 0.11719v5.252c0 0.04987-0.01753 0.08948-0.05078 0.11719-0.03325 0.03325-0.0709 0.04883-0.11524 0.04883h-2.0039c-0.04987 0-0.09175-0.01558-0.125-0.04883-0.02771-0.02771-0.04102-0.06732-0.04102-0.11719v-3.7363l-1-0.02148v-1.4941c0-0.04433 0.013306-0.08393 0.041016-0.11719 0.03325-0.03325 0.075124-0.05078 0.125-0.05078z" fill="#b8babd" fill-opacity=".98431" stop-color="#000000" stroke-linecap="square" stroke-linejoin="round" stroke-miterlimit="0" stroke-width="1.0464" style="paint-order:markers stroke fill"/></svg>
