<?xml version="1.0" encoding="UTF-8"?>
<svg id="a" width="24" height="24" version="1.1" viewBox="0 0 24 24" xml:space="preserve" xmlns="http://www.w3.org/2000/svg" xmlns:cc="http://creativecommons.org/ns#" xmlns:dc="http://purl.org/dc/elements/1.1/" xmlns:rdf="http://www.w3.org/1999/02/22-rdf-syntax-ns#"><metadata><rdf:RDF><cc:Work rdf:about=""><dc:creator><cc:Agent><dc:title>NinStar</dc:title></cc:Agent></dc:creator></cc:Work></rdf:RDF></metadata><path d="m10.056 3.9998a0.76343 0.76351 0.0029736 0 0-0.65173 0.37277l-0.9218 1.5357-1.7923 0.03125a0.76343 0.76351 0.0029736 0 0-0.74994 0.75224l-0.031247 1.7924-1.5378 0.92189a0.76343 0.76351 0.0029736 0 0-0.27453 1.0268l0.87046 1.567-0.87046 1.5692a0.76343 0.76351 0.0029736 0 0 0.27453 1.0246l1.5378 0.92189 0.029015 1.7947a0.76343 0.76351 0.0029736 0 0 0.75217 0.75225l1.7923 0.02902 0.92403 1.538a0.76343 0.76351 0.0029736 0 0 1.0245 0.27456l1.5668-0.87055 1.5713 0.87055a0.76343 0.76351 0.0029736 0 0 1.0245-0.27456l0.9218-1.538 1.7945-0.03125a0.76343 0.76351 0.0029736 0 0 0.74994-0.74778l0.03125-1.7969 1.5378-0.92189a0.76343 0.76351 0.0029736 0 0 0.27453-1.0246l-0.87046-1.5692 0.87046-1.567a0.76343 0.76351 0.0029736 0 0-0.27453-1.0268l-1.5401-0.92189-0.029016-1.7924a0.76343 0.76351 0.0029736 0 0-0.74994-0.75224l-1.7945-0.029018-0.9218-1.5402a0.76343 0.76351 0.0029736 0 0-1.0245-0.27456l-1.5691 0.87278-1.5691-0.87055a0.76343 0.76351 0.0029736 0 0-0.37497-0.098219z" color="#000000" fill="#72767d" style="paint-order:markers stroke fill"/><rect transform="rotate(-45)" x="-3.0213" y="14.798" width="7.3806" height="4.3455" fill="#fff" stop-color="#000000" style="paint-order:markers stroke fill"/><path transform="matrix(.40805 -.40805 .60786 .60786 .20868 1.8798)" d="m-8.7789 18.023 4.3778-2.5275 1e-7 2.5275 1e-7 2.5275-2.1889-1.2638z" fill="#fff" stop-color="#000000" style="paint-order:markers stroke fill"/></svg>
