<?xml version="1.0" encoding="UTF-8" standalone="no"?>
<!-- Created with Inkscape (http://www.inkscape.org/) -->

<svg
   width="24"
   height="24"
   viewBox="0 0 24 24"
   version="1.1"
   id="SVGRoot"
   xml:space="preserve"
   xmlns="http://www.w3.org/2000/svg"
   xmlns:svg="http://www.w3.org/2000/svg"
   xmlns:rdf="http://www.w3.org/1999/02/22-rdf-syntax-ns#"
   xmlns:cc="http://creativecommons.org/ns#"
   xmlns:dc="http://purl.org/dc/elements/1.1/"><defs
     id="defs1725" /><metadata
     id="metadata2103"><rdf:RDF><cc:Work
         rdf:about=""><dc:creator><cc:Agent><dc:title>NinStar</dc:title></cc:Agent></dc:creator></cc:Work></rdf:RDF></metadata><g
     id="g11094"
     transform="matrix(1.2744537,0,0,1.2744537,3.1348486,3.0207123)"
     style="stroke-width:1.34511"><path
       id="path15438"
       style="opacity:1;fill:#b9bbbe;fill-opacity:1;stroke:none;stroke-width:0.146888px;stroke-linecap:butt;stroke-linejoin:miter;stroke-opacity:1"
       d="m 7.0558267,3.0110388 c -0.077115,-6.03e-5 -0.1542348,8.68e-5 -0.2312825,0.00228 C 4.1836737,3.0884458 1.5196112,4.5237386 -0.09978821,6.9350783 0.49590985,8.0486295 0.9535661,8.6659725 1.8910019,9.3079338 L 4.1003424,7.2995628 C 3.9764046,5.5749037 5.232939,4.2051227 6.9726561,4.1606157 7.188398,4.1615844 7.4030017,4.186163 7.6129556,4.235811 L 8.6702473,3.1796586 C 8.1364633,3.0666086 7.595629,3.0114612 7.0558267,3.0110388 Z M 11.62679,4.4944373 9.7423502,6.3788774 c 0.046224,0.2038124 0.07013,0.4119431 0.070638,0.620931 C 9.8133194,8.5683464 8.5481517,9.9153541 6.9796136,9.9150229 6.7717883,9.9129429 6.564493,9.8882209 6.3621006,9.8409669 L 5.333292,10.867496 c 0.6068288,0.135492 1.1984465,0.200782 1.7420248,0.197103 C 9.4064464,11.048829 12.228796,9.7513128 14.046651,7.062326 13.369942,6.0043851 12.498098,5.1227179 11.62679,4.4944373 Z" /><path
       style="opacity:1;fill:#ed4245;fill-opacity:1;stroke:none;stroke-width:0.146888px;stroke-linecap:butt;stroke-linejoin:miter;stroke-opacity:1"
       d="M 12.916667,-0.11197918 0.25130212,12.553386 1.4329427,13.733073 14.096355,1.0696614 Z"
       id="path948-5" /></g></svg>
