<?xml version="1.0" encoding="UTF-8"?>
<svg id="a" width="24" height="24" version="1.1" viewBox="0 0 24 24" xml:space="preserve" xmlns="http://www.w3.org/2000/svg" xmlns:cc="http://creativecommons.org/ns#" xmlns:dc="http://purl.org/dc/elements/1.1/" xmlns:rdf="http://www.w3.org/1999/02/22-rdf-syntax-ns#"><metadata><rdf:RDF><cc:Work rdf:about=""><dc:creator><cc:Agent><dc:title>NinStar</dc:title></cc:Agent></dc:creator></cc:Work></rdf:RDF></metadata><g transform="matrix(1.2745 0 0 1.2745 3.1348 3.0207)" stroke-width="1.3451"><path d="m7.0558 3.011c-0.077115-6.03e-5 -0.15423 8.68e-5 -0.23128 0.00228-2.6409 0.075127-5.3049 1.5104-6.9243 3.9218 0.5957 1.1136 1.0534 1.7309 1.9908 2.3729l2.2093-2.0084c-0.12394-1.7247 1.1326-3.0944 2.8723-3.1389 0.21574 9.687e-4 0.43035 0.025547 0.6403 0.075195l1.0573-1.0562c-0.53378-0.11305-1.0746-0.1682-1.6144-0.16862zm4.571 1.4834-1.8844 1.8844c0.046224 0.20381 0.07013 0.41194 0.070638 0.62093 3.312e-4 1.5685-1.2648 2.9155-2.8334 2.9152-0.20783-0.00208-0.41512-0.026802-0.61751-0.074056l-1.0288 1.0265c0.60683 0.13549 1.1984 0.20078 1.742 0.1971 2.3311-0.01577 5.1535-1.3133 6.9713-4.0023-0.67671-1.0579-1.5486-1.9396-2.4199-2.5679z" fill="#b9bbbe"/><path d="m12.917-0.11198-12.665 12.665 1.1816 1.1797 12.663-12.663z" fill="#ed4245"/></g></svg>
