<?xml version="1.0" encoding="UTF-8" standalone="no"?>
<!-- Created with Inkscape (http://www.inkscape.org/) -->

<svg
   width="256"
   height="44"
   viewBox="0 0 256 44"
   version="1.1"
   id="SVGRoot"
   xml:space="preserve"
   xmlns="http://www.w3.org/2000/svg"
   xmlns:svg="http://www.w3.org/2000/svg"
   xmlns:rdf="http://www.w3.org/1999/02/22-rdf-syntax-ns#"
   xmlns:cc="http://creativecommons.org/ns#"
   xmlns:dc="http://purl.org/dc/elements/1.1/"><defs
     id="defs1725" /><g
     id="g4456"
     transform="translate(0,1.8514877)"><rect
       style="opacity:0;fill:#ffffff;fill-opacity:1;stroke:none;stroke-width:2.99999;stroke-linecap:round;stroke-linejoin:round;stroke-miterlimit:4;stroke-dasharray:none;paint-order:markers stroke fill;stop-color:#000000"
       id="rect11416-0"
       width="40.296986"
       height="40.296986"
       x="215.70302"
       y="4.2230753e-05" /><rect
       style="fill:#ffffff;fill-opacity:1;stroke:none;stroke-width:2.99999;stroke-linecap:round;stroke-linejoin:round;stroke-miterlimit:4;stroke-dasharray:none;paint-order:markers stroke fill;stop-color:#000000"
       id="rect12786-6"
       width="27.175882"
       height="27.168299"
       x="223.0511"
       y="1.9852075e-06" /><path
       id="rect12578-7"
       style="fill:#4752c4;fill-opacity:1;stroke-width:0.438276;stroke-linecap:round;stroke-linejoin:round;paint-order:markers stroke fill;stop-color:#000000"
       d="m 221.64351,-4.3510509e-6 c -2.86208,0 -5.16502,2.3045479510509 -5.16502,5.1666723510509 v 22.990087 1.806951 10.333323 l 5.64054,-5.150265 0.018,-0.01648 4.63213,-4.374698 -1.28716,4.374698 h 24.57731 c 2.86212,0 5.16503,-2.304565 5.16503,-5.166661 V 5.166668 c 0,-2.8621244 -2.30291,-5.1666723510509 -5.16503,-5.1666723510509 H 246.4553 V 17.041307 c 0,3.174712 -1.40047,5.9391 -3.45647,7.65243 -2.056,1.71333 -4.62278,2.477572 -7.1474,2.477572 -2.52465,0 -5.08978,-0.764242 -7.14578,-2.477572 -2.056,-1.71333 -3.45811,-4.477718 -3.45811,-7.65243 V -4.3510509e-6 Z m 9.66433,0 V 17.041307 c 0,1.558944 0.49148,2.345474 1.27569,2.998995 0.78422,0.653503 2.0056,1.072355 3.26792,1.072355 1.2623,0 2.48368,-0.418852 3.26788,-1.072355 0.78421,-0.653521 1.27734,-1.440051 1.27734,-2.998995 V -4.3510509e-6 Z" /><path
       style="fill:#ffffff;fill-opacity:1;stroke-width:0.0856532"
       d="m 33.236026,30.479651 c -2.811763,-0.379629 -5.043599,-1.820732 -6.057774,-3.911543 -0.656042,-1.352439 -0.710683,-1.845789 -0.713166,-6.435732 -0.0022,-3.569218 0.05286,-4.615395 0.285425,-5.452108 0.584125,-2.101476 2.257199,-3.73857 4.645902,-4.546006 1.158998,-0.3917618 1.663558,-0.4644258 3.191194,-0.4594365 1.281994,0.00418 1.462819,0.02088 2.109102,0.1948697 2.082508,0.5604978 3.690259,1.8610428 4.785648,3.8711938 l 0.298415,0.547573 -2.098684,0.845835 -2.098684,0.845812 -0.145043,-0.206936 c -0.438885,-0.626106 -1.263685,-1.157481 -2.062593,-1.328832 -0.558608,-0.119788 -1.666701,-0.04583 -2.164799,0.144514 -0.75807,0.289689 -1.340437,0.853484 -1.502228,1.454357 -0.04776,0.177352 -0.06686,1.661052 -0.05374,4.177543 0.02,3.851698 0.0224,3.906295 0.176935,4.195039 0.664152,1.240783 2.729318,1.712989 4.203171,0.961073 0.403278,-0.205728 0.89887,-0.677758 1.123105,-1.069696 0.103105,-0.180253 0.19577,-0.339054 0.205881,-0.352923 0.01011,-0.01385 1.021428,0.436973 2.247353,1.001866 l 2.228956,1.027055 -0.113501,0.220564 c -0.47957,0.93195 -1.711143,2.316188 -2.581221,2.901127 -0.894563,0.601445 -1.970127,1.060705 -3.002083,1.281862 -0.63903,0.136954 -2.20968,0.187155 -2.907571,0.09293 z m 93.681174,0.04662 c -0.0593,-0.01429 -0.35055,-0.06552 -0.64718,-0.113524 -1.13823,-0.184254 -2.57071,-0.819591 -3.60775,-1.600081 -0.52524,-0.3953 -1.92913,-1.782374 -1.92913,-1.90603 0,-0.03561 0.71358,-0.734531 1.58575,-1.553155 l 1.58577,-1.488403 0.37249,0.334901 c 1.13739,1.022593 2.48495,1.555748 3.93438,1.556605 1.49662,0.0022 2.37297,-0.581795 2.37297,-1.577815 0,-0.913575 -1.02519,-1.523197 -3.29321,-1.95828 -2.29784,-0.440775 -3.6406,-1.093828 -4.82754,-2.347733 -1.11554,-1.178493 -1.6394,-2.64595 -1.563,-4.378435 0.043,-0.974348 0.16393,-1.493986 0.52252,-2.244869 0.79702,-1.668899 2.56329,-2.91155 4.84675,-3.4099336 0.62011,-0.1353493 0.97349,-0.1649776 1.97747,-0.1658128 1.34439,-0.0022 1.95887,0.082071 2.92278,0.3958274 1.32015,0.429698 2.43747,1.14603 3.46473,2.221264 l 0.5586,0.584675 -1.42367,1.095037 c -0.78304,0.60228 -1.53915,1.182779 -1.68022,1.289995 l -0.25654,0.194913 -0.42658,-0.36288 c -1.24672,-1.060618 -2.92425,-1.512053 -4.14556,-1.115632 -1.28685,0.417697 -1.70846,1.834557 -0.78671,2.643884 0.36864,0.323647 1.15616,0.666724 1.95294,0.850736 2.73169,0.630854 3.50112,0.883815 4.5653,1.500865 0.67657,0.392267 1.54412,1.227552 1.89672,1.826162 0.72846,1.23676 0.99914,3.310806 0.62151,4.762855 -0.73253,2.816858 -3.82642,4.850307 -7.55092,4.962842 -0.51415,0.01538 -0.98334,0.01648 -1.04267,0.0022 z m 53.58593,-0.04662 c -2.81322,-0.379826 -5.05,-1.82471 -6.05542,-3.911543 -0.67882,-1.408992 -0.74317,-2.071935 -0.69787,-7.190769 0.0366,-4.13798 0.0515,-4.292452 0.5177,-5.380016 0.37071,-0.864781 0.66888,-1.314942 1.29527,-1.955488 0.91399,-0.934698 1.9563,-1.553748 3.30773,-1.96461 1.22751,-0.3731888 1.48361,-0.4077185 2.98419,-0.4025973 1.28584,0.0044 1.46185,0.020881 2.12128,0.197683 2.06774,0.5546733 3.67925,1.8606253 4.77323,3.8681823 l 0.2982,0.547178 -2.0975,0.847549 -2.09748,0.847549 -0.14612,-0.208255 c -0.45075,-0.642437 -1.25199,-1.162448 -2.04452,-1.326964 -0.58804,-0.122096 -1.67928,-0.05148 -2.18375,0.141305 -0.75807,0.289689 -1.34044,0.853484 -1.50223,1.454357 -0.0478,0.177352 -0.0668,1.661052 -0.0537,4.177543 0.02,3.851698 0.0224,3.906295 0.17693,4.195039 0.66413,1.240783 2.7293,1.712989 4.20317,0.961073 0.40326,-0.205728 0.89887,-0.677758 1.12308,-1.069696 0.10313,-0.180253 0.19646,-0.339736 0.2074,-0.35444 0.011,-0.01473 1.02207,0.436534 2.24692,1.002702 l 2.22702,1.029451 -0.11306,0.219706 c -0.47913,0.931093 -1.71108,2.315595 -2.58079,2.90027 -0.89456,0.601445 -1.97012,1.060705 -3.0021,1.281862 -0.63901,0.136954 -2.20966,0.187155 -2.90757,0.09293 z M 1.998519e-6,20.091868 V 9.9123793 L 4.835785,9.940469 c 4.6633982,0.027101 4.8607955,0.033738 5.53763,0.185946 2.323512,0.522583 3.784859,1.56065 4.621044,3.282584 0.597137,1.229706 0.83201,2.675623 0.683912,4.210886 -0.272721,2.827698 -1.453807,4.696829 -3.459233,5.474439 -0.234433,0.09093 -0.426269,0.188782 -0.426269,0.217487 0,0.02873 1.20166,1.565903 2.670391,3.415999 1.46871,1.850071 2.702284,3.404237 2.741275,3.453668 0.05651,0.07163 -0.579466,0.08987 -3.130465,0.08987 H 10.8727 L 8.5154717,27.035522 6.1582215,23.799666 H 5.7037308 5.2492621 v 3.235856 3.23583 H 2.6246101 1.9985189e-6 Z M 9.2300231,19.195173 C 9.7202963,19.011755 10.198811,18.59564 10.413286,18.166206 11.072097,16.847044 10.501138,15.360092 9.1468749,14.868126 8.8631204,14.765042 8.5222854,14.744799 7.0289807,14.742294 l -1.7797186,-0.0031 v 2.301048 2.301049 h 1.7950163 c 1.628698,0 1.8311505,-0.01363 2.1857447,-0.146229 z m 9.3940759,0.901245 V 9.9214787 h 2.552735 2.552691 V 20.096418 30.271352 h -2.552691 -2.552735 z m 25.095809,0 V 9.9214787 h 2.588693 2.58865 v 3.8470603 3.84706 h 2.948211 2.948233 v -3.84706 -3.8470603 h 2.588672 2.588694 V 20.096418 30.271352 h -2.588694 -2.588672 v -3.847056 -3.84706 h -2.948233 -2.948211 v 3.84706 3.847056 h -2.58865 -2.588693 z m 24.664352,-0.0042 V 9.9130606 l 4.72793,0.027826 c 5.18741,0.030507 5.084041,0.022551 6.379575,0.4913064 2.816554,1.019164 4.629813,3.873281 4.47244,7.039617 -0.162933,3.277243 -2.198207,5.832154 -5.27236,6.618381 -0.719321,0.183989 -2.042593,0.284765 -3.73846,0.284765 h -1.391737 v 2.948233 2.948207 h -2.588694 -2.588672 z m 9.132301,-0.507132 c 1.41875,-0.665537 1.799104,-2.829654 0.726156,-4.13132 -0.114205,-0.138558 -0.380925,-0.347891 -0.592741,-0.465217 l -0.385102,-0.21331 -1.851591,-0.0224 -1.851635,-0.02237 v 2.525678 2.525657 l 1.815655,-0.02246 c 1.67048,-0.02066 1.841568,-0.03457 2.139258,-0.174253 z m 8.628949,0.51133 V 9.9215227 h 4.389205 c 2.646038,0 4.66386,0.030639 5.08081,0.077126 3.372304,0.3760243 5.458245,2.1001563 6.082635,5.0276193 0.19005,0.891068 0.20122,2.545988 0.0235,3.488224 -0.32049,1.699647 -1.01895,3.00505 -2.040156,3.813036 -0.414224,0.327757 -1.457258,0.896937 -1.643644,0.896937 -0.05473,0 -0.09954,0.0315 -0.09954,0.06998 0,0.03851 1.201924,1.583618 2.6709,3.433605 1.46898,1.849961 2.70257,3.404038 2.7413,3.45347 0.0561,0.07163 -0.57999,0.0899 -3.1297,0.0899 H 97.020758 L 94.662585,27.035566 92.304389,23.799732 H 91.849591 91.39477 v 3.235834 3.235852 h -2.62463 -2.624652 z m 9.230043,-0.901245 c 0.490274,-0.183418 0.968766,-0.599533 1.183219,-1.028967 0.658834,-1.319162 0.08787,-2.806092 -1.266411,-3.29808 -0.283732,-0.103062 -0.624545,-0.123327 -2.117872,-0.125832 l -1.779719,-0.0031 v 2.301048 2.301027 h 1.794995 c 1.62872,0 1.831194,-0.01363 2.185788,-0.146207 z m 9.394057,0.901289 V 9.9215227 h 7.08291 7.08292 v 2.4089023 2.408901 h -4.49425 -4.49422 v 1.581992 1.58197 h 4.13469 4.1347 v 2.229132 2.229154 h -4.1347 -4.13469 v 1.510053 1.510053 h 4.49422 4.49425 v 2.444878 2.44486 h -7.08292 -7.08291 z m 33.14947,0 V 9.9215227 h 7.08291 7.08294 v 2.4089023 2.408901 h -4.49429 -4.49422 v 1.581992 1.58197 h 4.1347 4.13469 v 2.229132 2.229154 h -4.13469 -4.1347 v 1.509504 1.509525 l 4.47629,0.01846 4.47624,0.01846 0.0189,2.426877 0.0189,2.426881 h -7.08386 -7.08388 z m 16.89831,0 V 9.9215227 h 2.43655 2.43653 l 2.37222,4.1886203 c 1.30477,2.303753 2.43741,4.31808 2.51702,4.476266 0.0796,0.158208 0.49197,1.112774 0.91632,2.121279 0.75607,1.796862 0.85751,2.00648 0.93384,1.930124 0.0207,-0.02066 -0.0829,-0.746664 -0.23028,-1.613115 l -0.26801,-1.575398 -0.0222,-4.763888 -0.0222,-4.7638883 h 2.55472 2.55469 V 20.097385 30.273198 l -2.59764,-0.0189 -2.59764,-0.0189 -2.31004,-4.031881 c -2.16809,-3.784067 -2.36312,-4.154179 -3.17299,-6.021222 -0.47619,-1.09785 -0.90378,-1.98982 -0.95413,-1.990391 -0.0578,0 -0.0777,0.05829 -0.0543,0.160735 0.0202,0.089 0.16656,0.944105 0.32494,1.900254 l 0.28802,1.738442 v 4.140002 4.140019 h -2.55274 -2.55271 z m 36.1696,0 V 9.9215227 h 7.08291 7.08292 v 2.4089023 2.408901 h -4.49422 -4.49425 v 1.581992 1.58197 h 4.13469 4.1347 v 2.229132 2.229154 h -4.1347 -4.13469 v 1.510053 1.510053 h 4.49425 4.49422 v 2.444878 2.44486 h -7.08292 -7.08291 z"
       id="path4563-2" /></g><metadata
     id="metadata2103"><rdf:RDF><cc:Work
         rdf:about=""><dc:creator><cc:Agent><dc:title>NinStar</dc:title></cc:Agent></dc:creator></cc:Work></rdf:RDF></metadata></svg>
