<?xml version="1.0" encoding="UTF-8"?>
<svg id="a" width="24" height="24" version="1.1" viewBox="0 0 24 24" xml:space="preserve" xmlns="http://www.w3.org/2000/svg" xmlns:cc="http://creativecommons.org/ns#" xmlns:dc="http://purl.org/dc/elements/1.1/" xmlns:rdf="http://www.w3.org/1999/02/22-rdf-syntax-ns#"><metadata><rdf:RDF><cc:Work rdf:about=""><dc:creator><cc:Agent><dc:title>NinStar</dc:title></cc:Agent></dc:creator></cc:Work></rdf:RDF></metadata><path d="m12.192 4.6541c-0.89426 0.019352-1.7925 0.20344-2.6495 0.55845-2.5137 1.0412-4.2235 3.3838-4.4924 6.053h-1.3496l2.5254 4.3745 2.5254-4.3745h-1.7064c0.25725-1.8682 1.4811-3.4835 3.2576-4.2194 2.006-0.83089 4.3067-0.37185 5.842 1.1634 1.5353 1.5353 1.9943 3.8361 1.1634 5.842-0.8309 2.006-2.7835 3.3104-4.9547 3.3104v1.9856c2.9686 0 5.6523-1.7932 6.7883-4.5359 1.136-2.7427 0.50755-5.9085-1.5916-8.0076-1.4432-1.4432-3.3907-2.1926-5.358-2.15zm0.14582 4.1232c-0.44929 0-0.80976 0.36047-0.80976 0.80976v3.208c0 0.44929 0.36047 0.80976 0.80976 0.80976h3.208c0.44929 0 0.80976-0.36047 0.80976-0.80976s-0.36047-0.80976-0.80976-0.80976h-2.3982v-2.3982c0-0.44929-0.36047-0.80976-0.80976-0.80976z" fill="#b9bbbe" style="paint-order:markers stroke fill"/></svg>
