<?xml version="1.0" encoding="UTF-8"?>
<svg width="70" height="24" version="1.1" viewBox="0 0 70 24" xmlns="http://www.w3.org/2000/svg"><path d="m41.463 6.1209c-1.5594 0-3.0551 0.79063-4.4467 2.3502l1.639 1.7768s0.56239-0.48058 1.0123-0.86396c0.44265-0.37684 1.1747-0.72325 1.798-0.72325 1.0461 0 1.7463 0.64014 1.7059 1.6277-0.03437 0.8396-1.1127 1.6965-1.6806 2.1634-0.75345 0.61934-1.4922 1.2576-2.2316 1.8937-0.82233 0.70714-1.6001 1.376-1.8057 1.545v1.9902l2.39e-4 -4.97e-4h8.6194v-2.4358h-4.3389c1.085-0.84772 2.098-1.7839 3.0284-2.7989 2.5272-2.9036 0.02339-6.6069-3.2996-6.5245zm-12.038 0.18237v2.73e-4h-2.5304c-1.6395-3.8e-5 -2.9686 1.329-2.9686 2.9685v5.64c0 1.6395 1.3291 2.9685 2.9686 2.9684h2.5304c0.04689 4.9e-5 0.08492-0.03795 0.08491-0.08484v-11.408c-2.9e-5 -0.04686-0.03805-0.08482-0.08491-0.08477zm3.1095 0v2.73e-4h-1.7911c-0.04169-6e-5 -0.07548 0.03379-0.07535 0.07548v11.416c-4.4e-5 0.04685 0.03792 0.08485 0.08477 0.08484h1.7817c1.6394 4e-5 2.9685-1.329 2.9685-2.9684v-5.64c3.8e-5 -1.6395-1.329-2.9686-2.9685-2.9686zm-5.64 0.93376h1.6819v9.7101h-1.6819c-1.124 1.51e-4 -2.0352-0.9111-2.035-2.0351v-5.64c-2.45e-4 -1.124 0.91102-2.0353 2.035-2.035zm-0.07769 1.4513c-0.60115-1.8e-5 -1.0885 0.48731-1.0885 1.0885-6.1e-5 0.96988 1.1725 1.4555 1.8582 0.76974 0.68572-0.68572 0.20014-1.8583-0.76974-1.8582zm6.1954 2.8137c0.62477 0.02887 1.1165 0.54381 1.1165 1.1692-3.7e-5 0.64642-0.52403 1.1704-1.1704 1.1705-1.5987 0.0016-1.5429-2.415 0.05398-2.3397z" fill="#fff" stroke-width=".063442"/></svg>
