<?xml version="1.0" encoding="UTF-8"?>
<svg id="a" width="70" height="24" version="1.1" viewBox="0 0 70 24" xmlns="http://www.w3.org/2000/svg" xmlns:cc="http://creativecommons.org/ns#" xmlns:dc="http://purl.org/dc/elements/1.1/" xmlns:rdf="http://www.w3.org/1999/02/22-rdf-syntax-ns#"><g transform="translate(-77.139 -30.827)"><g transform="matrix(.079545 0 0 .079545 -53.315 54.918)"><path transform="matrix(12.571 0 0 12.571 1640 -302.86)" d="m29.592 5c-1.2119 0-2.2285 1.0147-2.2285 2.2266v9.5469c0 1.2119 1.0166 2.2266 2.2285 2.2266h10.816c1.2119 0 2.2285-1.0147 2.2285-2.2266v-9.5469c0-1.2119-1.0166-2.2266-2.2285-2.2266h-10.816zm0 1.2734h10.816c0.52882 0 0.95508 0.42431 0.95508 0.95312v9.5469c0 0.52882-0.42626 0.95312-0.95508 0.95312h-10.816c-0.52882 0-0.95508-0.42431-0.95508-0.95312v-9.5469c0-0.52882 0.42626-0.95312 0.95508-0.95312zm3.0664 2.1797c-0.44724 0-0.80859 0.36136-0.80859 0.80859v1.3184c0 0.44724 0.36136 0.80664 0.80859 0.80664s0.80664-0.35941 0.80664-0.80664v-1.3184c0-0.44724-0.35941-0.80859-0.80664-0.80859zm4.4531 0c-0.44724 0-0.80664 0.36136-0.80664 0.80859v1.3184c0 0.44724 0.3594 0.80664 0.80664 0.80664s0.80859-0.35941 0.80859-0.80664v-1.3184c0-0.44724-0.36136-0.80859-0.80859-0.80859zm-4.4961 5.2617-1.252 0.24023c0.14855 0.77554 0.70866 1.3433 1.3555 1.6758 0.6468 0.33248 1.4043 0.47583 2.1582 0.47266 0.75394-0.003166 1.5067-0.15244 2.1484-0.48633 0.64171-0.33389 1.196-0.89853 1.3359-1.668l-1.252-0.22852c-0.055928 0.30749-0.26521 0.55599-0.67188 0.76758-0.40666 0.21159-0.98537 0.34131-1.5664 0.34375-0.58105 0.002442-1.1614-0.12184-1.5703-0.33203-0.40892-0.2102-0.62352-0.46132-0.68555-0.78516z" color="#000000" fill="#fff" stroke-dashoffset="9.6" stroke-width=".079546" style="-inkscape-stroke:none;paint-order:markers stroke fill"/></g></g><metadata><rdf:RDF><cc:Work rdf:about=""><dc:creator><cc:Agent><dc:title>NinStar</dc:title></cc:Agent></dc:creator></cc:Work></rdf:RDF></metadata></svg>
