<?xml version="1.0" encoding="UTF-8"?>
<svg id="a" width="70" height="24" version="1.1" viewBox="0 0 70 24" xmlns="http://www.w3.org/2000/svg" xmlns:cc="http://creativecommons.org/ns#" xmlns:dc="http://purl.org/dc/elements/1.1/" xmlns:rdf="http://www.w3.org/1999/02/22-rdf-syntax-ns#"><g transform="translate(-77.139 -30.827)"><g transform="matrix(1 0 0 1.0036 -1857.9 335.91)"><path transform="matrix(1 0 0 .99641 1935 -303.99)" d="m29.332 4.0293c-0.5095 0-1.1895 0.41049-1.1895 0.92188v14.154c0 0.51139 0.41032 0.92383 0.91992 0.92383h12.877c0.5096 0 0.91992-0.41244 0.91992-0.92383v-11.979c0.3186-0.50848 0.6397-0.39575 0.9707-0.4375l0.025391-1.7383c7e-3 -0.47058-0.41032-0.92188-0.91992-0.92188h-13.604zm1.5156 1.9551h9.3047c0.4549 0 0.82226 0.36767 0.82226 0.82422v1.8867h-10.949v-1.8867c0-0.45655 0.36736-0.82422 0.82226-0.82422zm-0.82226 3.3262h10.949v7.9375c0 0.45656-0.36736 0.82422-0.82226 0.82422h-9.3047l-0.82226-0.82422v-7.9375z" fill="#fff" style="paint-order:markers stroke fill"/></g></g><metadata><rdf:RDF><cc:Work rdf:about=""><dc:creator><cc:Agent><dc:title>NinStar</dc:title></cc:Agent></dc:creator></cc:Work></rdf:RDF></metadata></svg>
