<?xml version="1.0" encoding="UTF-8"?>
<svg id="a" width="70" height="24" version="1.1" viewBox="0 0 70 24" xmlns="http://www.w3.org/2000/svg" xmlns:cc="http://creativecommons.org/ns#" xmlns:dc="http://purl.org/dc/elements/1.1/" xmlns:rdf="http://www.w3.org/1999/02/22-rdf-syntax-ns#"><g transform="translate(-77.139 -30.827)"><path d="m88.893 41.027a0.84606 0.84606 0 0 0 0.84617 0.84606 0.84606 0.84606 0 0 0 0.84606-0.84606 0.84612 0.84612 0 1 0-1.6922 0m5.2911-2.7h-1.3924a0.05852 0.05852 0 0 0-0.05863 0.05863v8.8752c0 0.03637 0.02942 0.06612 0.0659 0.06612h1.3851c1.2744 0 2.3076-1.0332 2.3076-2.3077v-4.3846c0-1.2744-1.0332-2.3076-2.3076-2.3076m0.32952 5.86a0.90987 0.90987 0 0 1-0.90987-0.90998 0.90998 0.90998 0 0 1 1.8199 0 0.90998 0.90998 0 0 1-0.90998 0.90998m-2.747-5.86h-1.9671c-1.2744 0-2.3076 1.0332-2.3076 2.3076v4.3845c0 1.2746 1.0332 2.3077 2.3076 2.3077h1.9671a0.066125 0.066125 0 0 0 0.06612-0.06612v-8.8679a0.065904 0.065904 0 0 0-0.06612-0.06591m-0.65948 8.2745h-1.3076c-0.42265 0-0.81994-0.16454-1.1187-0.46331a1.5713 1.5713 0 0 1-0.46331-1.1189v-4.3846c0-0.42276 0.16443-0.82006 0.4632-1.1186a1.5716 1.5716 0 0 1 1.1188-0.46342h1.3076zm10.866-6.8676c-1.8916 0-3.4251 1.5113-3.4251 3.3754 0 1.8642 1.5335 3.3756 3.4251 3.3756 1.8917 0 3.4252-1.5114 3.4252-3.3756 0-1.8642-1.5334-3.3754-3.4252-3.3754m0 5.4608c-1.1128 0-2.015-0.93368-2.015-2.0854 0-1.1517 0.90228-2.0852 2.015-2.0852 1.1129 0 2.0149 0.93357 2.0149 2.0852 0 1.1517-0.90205 2.0854-2.0149 2.0854m18.744 1.0844h1.3615v-6.3395h-1.3615zm16.07-5.1033v-1.2362h-5.2346v6.3395h5.2346v-1.2363h-3.873v-1.4321h3.6851v-1.1737h-3.6851v-1.2611zm-8.4324 2.8527-3.1559-4.089h-1.2772v6.3395h1.2819v-4.227l3.3742 4.2271h1.1228v-6.3395h-1.346v4.0889zm-16.984 0-3.1559-4.089h-1.2772v6.3395h1.2819v-4.227l3.3742 4.2271h1.1228v-6.3395h-1.3459zm4.5509-4.0889h-1.3615v6.3395h4.8357v-1.2363h-3.4741v-5.1032z" clip-path="url(#b)" fill="#fff" stroke-width=".11021"/></g><metadata><rdf:RDF><cc:Work rdf:about=""><dc:creator><cc:Agent><dc:title>NinStar</dc:title></cc:Agent></dc:creator></cc:Work></rdf:RDF></metadata></svg>
