<?xml version="1.0" encoding="UTF-8" standalone="no"?>
<!-- Created with Inkscape (http://www.inkscape.org/) -->

<svg
   width="70"
   height="24"
   viewBox="0 0 70 24"
   version="1.1"
   id="SVGRoot"
   xmlns="http://www.w3.org/2000/svg"
   xmlns:svg="http://www.w3.org/2000/svg"
   xmlns:rdf="http://www.w3.org/1999/02/22-rdf-syntax-ns#"
   xmlns:cc="http://creativecommons.org/ns#"
   xmlns:dc="http://purl.org/dc/elements/1.1/">
  <defs
     id="defs1725" />
  <g
     id="layer1"
     transform="translate(-77.1393,-30.827056)">
    <path
       style="fill:#ffffff;fill-opacity:1;stroke-width:0.0597949"
       d="M 91.242,47.75624 C 90.5605,47.5946 89.8457,46.98561 89.5129,46.28298 l -0.1914,-0.40412 v -3.05264 -3.05264 l 0.2223,-0.44982 c 0.2754,-0.5571 0.7257,-1.0001 1.287,-1.26599 l 0.4041,-0.19143 1.4504,-0.0196 1.4504,-0.0197 -0.015,4.9826 -0.015,4.98259 -1.3155,0.01 c -0.7235,0.005 -1.42,-0.0152 -1.5476,-0.0456 z m 2.0413,-4.91197 -0.015,-4.20059 h -0.8671 c -0.7113,0 -0.9204,0.0206 -1.1643,0.11465 -0.3905,0.15063 -0.8212,0.56058 -0.9967,0.94887 l -0.141,0.31176 v 2.78046 c 0,3.14387 0,3.12092 0.47,3.63407 0.4493,0.48747 0.7984,0.59477 1.967,0.60482 l 0.7628,0.007 z m -1.872,-1.14547 c -0.581,-0.25306 -0.7413,-1.0324 -0.3071,-1.49279 0.4707,-0.49907 1.2761,-0.3696 1.5499,0.24913 0.3493,0.78971 -0.4495,1.58916 -1.2428,1.24366 z m 3.7079,6.04865 c -0.016,-0.0411 -0.022,-2.28118 -0.013,-4.97793 l 0.015,-4.90318 0.9493,-0.0165 c 1.0881,-0.0189 1.4859,0.0531 2.0024,0.36255 0.4162,0.24943 0.7565,0.63464 0.9882,1.11893 l 0.1859,0.38867 v 3.10933 3.10933 l -0.1859,0.38867 c -0.3442,0.71927 -0.9295,1.21223 -1.6653,1.40264 -0.4608,0.11927 -2.2329,0.13288 -2.2769,0.0175 z m 2.2474,-3.45291 c 0.2404,-0.0668 0.557,-0.3667 0.6514,-0.61704 0.2791,-0.74031 -0.4722,-1.54416 -1.2143,-1.29923 -0.272,0.0897 -0.6181,0.47612 -0.6689,0.74646 -0.093,0.49361 0.1844,0.97097 0.661,1.13954 0.2914,0.10304 0.306,0.10381 0.5708,0.0303 z m 28.5794,3.36753 c -0.2646,-0.0557 -0.8976,-0.36844 -1.1492,-0.56766 -0.7823,-0.61966 -1.1872,-1.74441 -0.9812,-2.72627 0.2431,-1.15868 1.1701,-2.04575 2.3404,-2.23968 0.5485,-0.0909 1.1215,0.003 1.6731,0.27636 0.4402,0.21751 1.0659,0.76947 1.034,0.9121 -0.01,0.0425 -0.1918,0.2247 -0.4052,0.40491 l -0.388,0.32765 -0.2345,-0.24409 c -0.129,-0.13424 -0.3801,-0.31072 -0.558,-0.39216 -0.2726,-0.1248 -0.391,-0.14435 -0.7528,-0.12433 -0.4921,0.0273 -0.7724,0.1436 -1.0909,0.45293 -0.6278,0.60971 -0.6433,1.65119 -0.034,2.30704 0.4595,0.49474 1.3435,0.64106 1.9571,0.32387 0.1674,-0.0865 0.3886,-0.25324 0.4915,-0.37046 0.1029,-0.11721 0.2033,-0.21311 0.223,-0.21311 0.084,0 0.7973,0.63566 0.8009,0.71414 0.01,0.16695 -0.649,0.72463 -1.113,0.94495 -0.4146,0.1969 -0.5029,0.2161 -1.0579,0.23005 -0.3331,0.008 -0.6727,8.3e-4 -0.7548,-0.0162 z m -22.9016,-0.11223 c -0.4419,-0.10025 -1.1789,-0.3693 -1.2277,-0.44819 -0.018,-0.029 0.069,-0.24256 0.194,-0.47468 0.1563,-0.29123 0.2543,-0.41355 0.3162,-0.39465 0.049,0.0151 0.2758,0.0976 0.5033,0.18338 0.8123,0.3065 1.908,0.32499 2.3953,0.0404 0.3966,-0.23161 0.4258,-0.64229 0.061,-0.85442 -0.099,-0.0573 -0.6634,-0.20117 -1.2553,-0.31983 -1.268,-0.25419 -1.7481,-0.45422 -2.0191,-0.84136 -0.5331,-0.76152 -0.036,-1.73121 1.0746,-2.09546 0.5268,-0.17285 1.8494,-0.15963 2.494,0.0249 0.679,0.19442 0.6524,0.15731 0.4523,0.6317 -0.095,0.22598 -0.1861,0.42368 -0.2018,0.43933 -0.016,0.0157 -0.1983,-0.0274 -0.406,-0.0957 -0.7778,-0.2559 -1.6133,-0.28524 -2.1533,-0.0757 -0.2182,0.0847 -0.37,0.32696 -0.3227,0.51525 0.056,0.22144 0.3942,0.36381 1.2848,0.54027 1.1894,0.23564 1.728,0.44692 2.0806,0.81597 0.2459,0.25736 0.3177,0.45618 0.3177,0.8804 0,0.69272 -0.4469,1.23557 -1.2169,1.47796 -0.4364,0.13743 -1.8543,0.16754 -2.3709,0.0503 z m 5.6577,-0.12929 c -0.2568,-0.84951 -1.4123,-4.99494 -1.4123,-5.06657 0,-0.0839 0.075,-0.0949 0.5498,-0.08 l 0.5497,0.0172 0.4747,1.79385 c 0.2611,0.98662 0.4846,1.80506 0.4966,1.81877 0.013,0.0137 0.034,0.0132 0.048,-8.4e-4 0.014,-0.0143 0.2637,-0.83275 0.5543,-1.81875 l 0.5284,-1.79274 h 0.4739 0.474 l 0.5367,1.8403 c 0.2952,1.01216 0.5554,1.81939 0.5783,1.79384 0.023,-0.0256 0.2221,-0.71914 0.4425,-1.54132 0.2205,-0.82218 0.4411,-1.63614 0.4904,-1.8088 l 0.09,-0.31391 h 0.5678 c 0.5127,0 0.5648,0.0102 0.5367,0.10464 -0.018,0.0576 -0.303,1.05985 -0.6353,2.22735 -0.3322,1.16749 -0.6575,2.30434 -0.7228,2.52633 l -0.1188,0.40362 h -0.6227 -0.6229 l -0.1176,-0.40362 c -0.065,-0.22199 -0.2702,-0.95522 -0.4565,-1.6294 -0.1864,-0.67419 -0.3591,-1.24717 -0.3839,-1.27329 -0.025,-0.0262 -0.2585,0.70038 -0.5196,1.61445 l -0.4748,1.66196 -0.6361,0.0169 c -0.567,0.0151 -0.6396,0.005 -0.6683,-0.0897 z m 7.3178,-2.52831 v -2.6353 l 0.583,0.0171 0.583,0.0171 v 2.60108 2.60108 l -0.583,0.0171 -0.583,0.0171 z m 4.1258,0.56973 v -2.06123 l -0.8221,-0.0167 -0.8222,-0.0167 -0.018,-0.5531 -0.017,-0.5531 h 2.2468 2.2469 l -0.017,0.5531 -0.018,0.5531 -0.8222,0.0167 -0.8222,0.0167 v 2.06123 2.06124 h -0.5681 -0.568 z m 9.9858,-0.5674 v -2.6333 h 0.5367 0.5368 l 0.017,1.03146 0.017,1.03146 h 1.1959 1.1958 l 0.017,-1.03146 0.017,-1.03146 h 0.5367 0.5368 v 2.63097 2.63097 H 134.2 133.6618 v -1.0464 -1.04642 h -1.2243 -1.2244 l -0.017,1.03147 -0.017,1.03145 -0.5232,0.0173 -0.5233,0.0172 z m 2.8479,-4.03292 c -1.1914,-0.44356 -1.3396,-2.05907 -0.2476,-2.69904 0.711,-0.4167 1.631,-0.15872 2.0267,0.56834 0.4034,0.7411 0.1762,1.59419 -0.5355,2.01128 -0.3321,0.19467 -0.896,0.24882 -1.2436,0.11942 z m 1.047,-0.80008 c 0.2969,-0.27695 0.3698,-0.63522 0.2015,-0.98993 -0.3748,-0.7898 -1.6079,-0.49212 -1.5958,0.38525 0.01,0.49415 0.3571,0.83051 0.8652,0.83091 0.2489,1.8e-4 0.318,-0.0293 0.5291,-0.22623 z m -32.0583,-0.6138 v -1.37841 l 0.314,0.0181 0.3139,0.0181 0.6427,0.8604 0.6429,0.86041 v -0.87535 -0.87536 h 0.2989 0.299 v 1.37528 1.37528 l -0.284,-0.002 -0.284,-0.002 -0.6728,-0.90512 -0.6726,-0.90512 v 0.90749 0.9075 h -0.299 -0.299 z m 4.664,0.003 v -1.37528 h 0.299 0.299 v 1.37528 1.37529 h -0.299 -0.299 z m 2.6908,0.003 v -1.37856 h 0.2973 0.2974 l 0.6445,0.85207 0.6443,0.85208 0.017,-0.85208 0.017,-0.85207 h 0.2974 0.2973 v 1.37528 1.37528 h -0.2873 -0.2872 l -0.6545,-0.88197 -0.6545,-0.88197 -0.03,0.86702 -0.03,0.86702 -0.284,0.0183 -0.284,0.0182 z m 5.3679,0.28075 -0.016,-1.09126 -0.4336,-0.0176 -0.4335,-0.0176 V 38.3416 38.07515 h 1.1959 1.1959 v 0.26645 0.26646 l -0.4335,0.0176 -0.4336,0.0176 -0.016,1.09126 -0.017,1.09125 h -0.2962 -0.2963 z m 3.5415,-0.28403 v -1.37528 h 1.0763 1.0764 v 0.23739 0.23739 l -0.7624,0.0168 -0.7625,0.0168 -0.018,0.28403 -0.018,0.28402 h 0.7541 0.7541 l -0.018,0.25413 -0.018,0.25413 -0.7325,0.0168 -0.7325,0.0168 v 0.29714 0.29713 h 0.7773 0.7774 v 0.26907 0.26909 h -1.0763 -1.0764 z m 4.4847,0 v -1.37528 h 0.294 0.294 l 0.6477,0.85207 0.6478,0.85208 0.017,-0.85208 0.017,-0.85207 h 0.2973 0.2974 v 1.37528 1.37528 h -0.2947 -0.2948 l -0.6374,-0.86703 c -0.3506,-0.47686 -0.6619,-0.86702 -0.6919,-0.86702 -0.03,0 -0.054,0.38503 -0.054,0.86702 v 0.86703 h -0.2691 -0.269 z m 4.8832,1.33542 c -0.022,-0.0219 -0.04,-0.64279 -0.04,-1.37969 v -1.33984 l 0.8568,0.0193 c 0.8227,0.0186 0.8667,0.026 1.1094,0.18676 0.9019,0.59755 0.8342,1.92078 -0.1226,2.39759 -0.2849,0.142 -0.3762,0.15568 -1.0381,0.15568 -0.3992,0 -0.7437,-0.0179 -0.7656,-0.0398 z m 1.5722,-0.65589 c 0.2299,-0.1358 0.3611,-0.38355 0.3611,-0.68169 0,-0.53005 -0.4247,-0.86331 -1.0499,-0.82376 l -0.2955,0.0187 -0.017,0.79229 -0.017,0.79228 h 0.426 c 0.2871,0 0.4801,-0.0319 0.5916,-0.0978 z"
       id="path2377" />
  </g>
  <metadata
     id="metadata2103">
    <rdf:RDF>
      <cc:Work
         rdf:about="">
        <dc:creator>
          <cc:Agent>
            <dc:title>NinStar</dc:title>
          </cc:Agent>
        </dc:creator>
      </cc:Work>
    </rdf:RDF>
  </metadata>
</svg>
