<?xml version="1.0" encoding="UTF-8" standalone="no"?>
<!-- Created with Inkscape (http://www.inkscape.org/) -->

<svg
   width="70"
   height="24"
   viewBox="0 0 70 24"
   version="1.1"
   id="SVGRoot"
   xmlns="http://www.w3.org/2000/svg"
   xmlns:svg="http://www.w3.org/2000/svg"
   xmlns:rdf="http://www.w3.org/1999/02/22-rdf-syntax-ns#"
   xmlns:cc="http://creativecommons.org/ns#"
   xmlns:dc="http://purl.org/dc/elements/1.1/">
  <defs
     id="defs1725" />
  <g
     id="layer1"
     transform="translate(-77.1393,-30.827056)">
    <path
       clip-path="url(#b)"
       fill="#ffffff"
       d="m 88.892816,41.027033 a 0.84606436,0.84606436 0 0 0 0.846174,0.846065 0.84606436,0.84606436 0 0 0 0.846065,-0.846065 0.8461195,0.8461195 0 1 0 -1.692239,0 m 5.29107,-2.699978 h -1.392364 a 0.05852028,0.05852028 0 0 0 -0.05863,0.05863 v 8.875245 c 0,0.03637 0.02942,0.06612 0.0659,0.06612 h 1.38509 c 1.274442,0 2.307639,-1.033197 2.307639,-2.307748 v -4.384613 c 0,-1.274442 -1.033197,-2.307639 -2.307639,-2.307639 m 0.329521,5.859963 a 0.90987461,0.90987461 0 0 1 -0.909874,-0.909985 0.90998481,0.90998481 0 0 1 1.819859,0 0.90998481,0.90998481 0 0 1 -0.909985,0.909985 M 91.766367,38.32705 H 89.79927 c -1.274442,0 -2.307639,1.033197 -2.307639,2.307639 v 4.384502 c 0,1.274552 1.033197,2.307749 2.307639,2.307749 h 1.967097 a 0.06612461,0.06612461 0 0 0 0.06612,-0.06612 v -8.86786 a 0.06590419,0.06590419 0 0 0 -0.06612,-0.06591 m -0.659483,8.274503 H 89.79927 c -0.422647,0 -0.819945,-0.16454 -1.118718,-0.463313 a 1.5713411,1.5713411 0 0 1 -0.463313,-1.118938 v -4.384613 c 0,-0.422757 0.164429,-0.820055 0.463202,-1.118608 a 1.5715615,1.5715615 0 0 1 1.118829,-0.463423 h 1.307614 z m 10.865706,-6.867591 c -1.8916,0 -3.425145,1.511278 -3.425145,3.37544 0,1.864163 1.533545,3.375551 3.425145,3.375551 1.89172,0 3.42515,-1.511388 3.42515,-3.375551 0,-1.864162 -1.53343,-3.37544 -3.42515,-3.37544 m 0,5.46079 c -1.11276,0 -2.015038,-0.933679 -2.015038,-2.08535 0,-1.15167 0.902278,-2.085239 2.015038,-2.085239 1.11288,0 2.01493,0.933569 2.01493,2.085239 0,1.151671 -0.90205,2.08535 -2.01493,2.08535 m 18.7438,1.084444 h 1.3615 v -6.339477 h -1.3615 z m 16.07048,-5.103277 v -1.2362 h -5.23465 v 6.339477 h 5.23465 v -1.23631 h -3.87303 v -1.432149 h 3.68513 V 42.43703 h -3.68513 v -1.261106 z m -8.43243,2.852726 -3.15591,-4.089036 h -1.2772 v 6.339477 h 1.28194 V 42.05207 l 3.37423,4.227126 h 1.12279 v -6.339477 h -1.34596 v 4.088926 z m -16.98433,0 -3.1559,-4.089036 h -1.2772 v 6.339477 h 1.28193 V 42.05207 l 3.37423,4.227126 h 1.1228 v -6.339477 h -1.34586 z m 4.55092,-4.088926 h -1.36151 v 6.339477 h 4.8357 v -1.23631 h -3.47408 v -5.103167 z"
       id="path2207"
       style="stroke-width:0.110208" />
  </g>
  <metadata
     id="metadata2103">
    <rdf:RDF>
      <cc:Work
         rdf:about="">
        <dc:creator>
          <cc:Agent>
            <dc:title>NinStar</dc:title>
          </cc:Agent>
        </dc:creator>
      </cc:Work>
    </rdf:RDF>
  </metadata>
</svg>
