<?xml version="1.0" encoding="UTF-8"?>
<svg id="a" width="70" height="24" version="1.1" viewBox="0 0 70 24" xmlns="http://www.w3.org/2000/svg" xmlns:cc="http://creativecommons.org/ns#" xmlns:dc="http://purl.org/dc/elements/1.1/" xmlns:rdf="http://www.w3.org/1999/02/22-rdf-syntax-ns#"><g transform="translate(-77.139 -30.827)"><g transform="matrix(1.4903 0 0 1.4903 -2060.6 -46.632)" stroke-width="10.933"><g transform="matrix(.061377 0 0 .061377 1506.6 86.977)"><path d="m-843-499.2c11.6-5.2 24.6-8 38.3-8 30.9 0 58.2 14.7 74.7 37.2 1.3 1.9 3.9 2.3 5.8 0.9 1.9-1.3 2.3-4 0.9-5.9-18-24.6-47.8-40.6-81.4-40.6-14.8 0-29.1 3.1-41.8 8.8-2.1 0.9-3 3.4-2.2 5.5 1.2 2.1 3.7 3.1 5.7 2.1" fill="#fff" stroke-width="186.01"/></g><g transform="matrix(.061377 0 0 .061377 1507.1 86.758)"><path d="m-750.9-453.9c-1.2 0-2.5-0.6-3.3-1.6-13.5-18.3-35.7-29.3-59.2-29.3-10.5 0-20.6 2.1-30.1 6.2-2.1 0.9-4.5 0-5.5-2.2-0.9-2.1 0-4.5 2.2-5.5 10.5-4.6 21.8-6.9 33.4-6.9 26.1 0 50.7 12.2 65.8 32.7 1.3 1.9 0.9 4.4-0.9 5.8-0.7 0.5-1.5 0.8-2.4 0.8" fill="#fff" stroke-width="186.01"/></g><g transform="matrix(.061377 0 0 .061377 1506.5 86.76)"><path d="m-861.3-454.2c0-3.1 2.7-5.7 5.9-5.7h14.9c1.3 0 2.3-0.6 3.5-1.4 9.6-6.5 21.2-10.3 33.8-10.3 32.2 0 58.2 24.9 58.2 55.8v51.1c0 3.1-2.7 5.7-5.9 5.7h-19c-3.3 0-5.9-2.6-5.9-5.7v-51.1c0-14.5-12.3-26.3-27.4-26.3-15.2 0-27.4 11.8-27.4 26.3v51.1c0 3.1-2.7 5.7-6 5.7h-19c-3.3 0-5.9-2.6-5.9-5.7v-89.5z" fill="#fff" stroke-width="186.01"/></g></g></g><metadata><rdf:RDF><cc:Work rdf:about=""><dc:creator><cc:Agent><dc:title>NinStar</dc:title></cc:Agent></dc:creator></cc:Work></rdf:RDF></metadata></svg>
