<?xml version="1.0" encoding="UTF-8"?>
<svg id="a" width="70" height="24" version="1.1" viewBox="0 0 70 24" xmlns="http://www.w3.org/2000/svg" xmlns:cc="http://creativecommons.org/ns#" xmlns:dc="http://purl.org/dc/elements/1.1/" xmlns:rdf="http://www.w3.org/1999/02/22-rdf-syntax-ns#"><g transform="translate(-77.139 -30.827)"><g transform="matrix(.1709 0 0 .1709 95.299 37.803)" fill="#fff" fill-rule="evenodd" stroke-width="20.733"><g transform="translate(-5.8254 -5.6214)" fill="#fff" stroke-width="20.733"><g fill="#fff" stroke-width="20.733"><path class="fil0" d="m165.01 25.954c0 13.427 15.875 11.507 15.875 2.1167v-22.225h-15.875z"/><path class="fil0" d="m143.14 40.065c0 6.6341 4.5822 10.583 11.289 10.583h38.1c5.6587 0 10.231-3.9072 10.231-9.525v-27.869c0-3.3857-2.5233-7.0555-5.6444-7.0555h-8.8195v22.93c0 17.416-30.339 17.282-30.339 0.3528v-23.636h-6.7028c-4.3638 0-8.1139 2.7649-8.1139 7.0555z"/><g fill-rule="nonzero"><path class="fil1" d="m90.402 12.433c0 3.6214 3.0496 6.671 6.8616 6.671 4.0026 0 7.1475-2.9544 7.1475-6.671 0-3.7167-3.1449-6.6709-7.1475-6.6709-3.812 0-6.8616 2.9542-6.8616 6.6709z"/><polygon class="fil1" points="91.546 63.895 103.36 63.895 103.36 25.68 91.546 25.68"/><path class="fil1" d="m114.32 12.433c0 3.6214 3.1449 6.671 6.9569 6.671 3.9072 0 7.0521-2.9544 7.0521-6.671 0-3.7167-3.1449-6.6709-7.0521-6.6709-3.812 0-6.9569 2.9542-6.9569 6.6709z"/><polygon class="fil1" points="115.47 63.895 127.28 63.895 127.28 25.68 115.47 25.68"/><path class="fil1" d="m72.772 9.0026-10.292 40.502s-7.9098-30.401-9.244-34.784c-1.2389-4.2884-3.9073-6.1944-7.624-6.1944-3.8119 0-6.385 1.906-7.7193 6.1944-1.2388 4.3839-9.1487 34.784-9.1487 34.784l-10.388-40.502h-12.389s11.912 43.171 13.533 48.222c1.2388 3.9073 4.2885 7.0521 8.6722 7.0521 5.1461 0 7.5287-3.7166 8.5769-7.0521 1.1436-3.4308 8.8629-31.925 8.8629-31.925s7.7192 28.495 8.7676 31.925c1.1436 3.3355 3.526 7.0521 8.577 7.0521 4.479 0 7.4333-3.1448 8.7675-7.0521 1.62-5.0509 13.533-48.222 13.533-48.222z"/></g></g></g></g></g><metadata><rdf:RDF><cc:Work rdf:about=""><dc:creator><cc:Agent><dc:title>NinStar</dc:title></cc:Agent></dc:creator></cc:Work></rdf:RDF></metadata></svg>
