<?xml version="1.0" encoding="UTF-8"?>
<svg id="a" width="70" height="24" version="1.1" viewBox="0 0 70 24" xmlns="http://www.w3.org/2000/svg" xmlns:cc="http://creativecommons.org/ns#" xmlns:dc="http://purl.org/dc/elements/1.1/" xmlns:rdf="http://www.w3.org/1999/02/22-rdf-syntax-ns#"><g transform="translate(-77.139 -30.827)"><g transform="translate(-1164.9 302.83)" fill="#fff"><path transform="translate(1242,-272)" d="m35 4c-4.432 0-8 3.568-8 8s3.568 8 8 8 8-3.568 8-8-3.568-8-8-8zm3 2c1.1843 0.36166 2.4848 1.1033 3 3h-2c-0.2122-0.26813-0.2321-0.43269-1-1v-2zm-3 2c2.216 0 4 1.784 4 4s-1.784 4-4 4-4-1.784-4-4 1.784-4 4-4zm-6 7h2c0.2122 0.26813 0.2321 0.43269 1 1v2c-1.1843-0.36166-2.4848-1.1033-3-3z" style="paint-order:markers stroke fill"/><rect x="1275" y="-262" width="4" height="4" rx="16" ry="16" style="paint-order:markers stroke fill"/></g></g><metadata><rdf:RDF><cc:Work rdf:about=""><dc:creator><cc:Agent><dc:title>NinStar</dc:title></cc:Agent></dc:creator></cc:Work></rdf:RDF></metadata></svg>
