<?xml version="1.0" encoding="UTF-8"?>
<svg width="24" height="16" version="1.1" viewBox="0 0 24 16" xml:space="preserve" xmlns="http://www.w3.org/2000/svg"><path d="m17.23 3.2429c-1.2617 0-2.472 0.63972-3.5979 1.9016l1.3262 1.4377s0.45504-0.38885 0.81908-0.69905c0.35816-0.30491 0.95048-0.5852 1.4548-0.5852 0.84642 0 1.413 0.51795 1.3803 1.317-0.02781 0.67934-0.90031 1.3727-1.3598 1.7505-0.60964 0.50112-1.2074 1.0176-1.8056 1.5322-0.66537 0.57216-1.2947 1.1134-1.461 1.2501v1.6103l1.94e-4 -4.02e-4h6.9742v-1.9709h-3.5107c0.8779-0.68591 1.6975-1.4434 2.4503-2.2647 2.0448-2.3494 0.01893-5.3458-2.6698-5.2791zm-9.7402 0.14756v2.209e-4h-2.0474c-1.3266-3.07e-5 -2.402 1.0753-2.402 2.4019v4.5635c0 1.3266 1.0754 2.4019 2.402 2.4018h2.0474c0.03794 3.9e-5 0.068711-0.03071 0.068703-0.06865v-9.2305c-2.35e-5 -0.037916-0.030787-0.06863-0.068703-0.068589zm2.516 0v2.209e-4h-1.4492c-0.033732-4.85e-5 -0.061073 0.02734-0.060967 0.061073v9.237c-3.56e-5 0.03791 0.030682 0.06865 0.068589 0.06865h1.4416c1.3265 2.9e-5 2.4019-1.0753 2.4019-2.4018v-4.5635c3.1e-5 -1.3266-1.0753-2.402-2.4019-2.402zm-4.5635 0.75553h1.3609v7.8567h-1.3609c-0.90945 1.22e-4 -1.6467-0.73719-1.6466-1.6466v-4.5635c-1.982e-4 -0.90945 0.73713-1.6468 1.6466-1.6466zm-0.062861 1.1743c-0.4864-1.45e-5 -0.88073 0.39429-0.88073 0.88073-4.94e-5 0.78475 0.9487 1.1777 1.5035 0.62282 0.55483-0.55483 0.16194-1.5036-0.62281-1.5035zm5.0128 2.2766c0.50552 0.02336 0.90339 0.44001 0.90339 0.94603-3e-5 0.52303-0.424 0.947-0.947 0.94708-1.2935 0.0013-1.2484-1.954 0.04368-1.8931z" fill="#ff4343" stroke-width=".051332"/></svg>
