<?xml version="1.0" encoding="UTF-8"?>
<svg id="a" width="256" height="44" version="1.1" viewBox="0 0 256 44" xml:space="preserve" xmlns="http://www.w3.org/2000/svg" xmlns:cc="http://creativecommons.org/ns#" xmlns:dc="http://purl.org/dc/elements/1.1/" xmlns:rdf="http://www.w3.org/1999/02/22-rdf-syntax-ns#"><g transform="translate(0 1.8515)"><rect x="215.7" y="4.2231e-5" width="40.297" height="40.297" opacity="0" stop-color="#000000" stroke-width="3" style="paint-order:markers stroke fill"/><g><rect x="223.05" y="1.9852e-6" width="27.176" height="27.168" fill="#fff" stop-color="#000000" style="paint-order:markers stroke fill"/><path d="m221.64-4.3511e-6c-2.8621 0-5.165 2.3045-5.165 5.1667v35.13l5.6405-5.1503 0.018-0.01648 4.6321-4.3747-1.2872 4.3747h24.577c2.8621 0 5.165-2.3046 5.165-5.1667v-24.797c0-2.8621-2.3029-5.1667-5.165-5.1667h-3.604v17.041c0 3.1747-1.4005 5.9391-3.4565 7.6524s-4.6228 2.4776-7.1474 2.4776c-2.5246 0-5.0898-0.76424-7.1458-2.4776s-3.4581-4.4777-3.4581-7.6524v-17.041zm9.6643 0v17.041c0 1.5589 0.49148 2.3455 1.2757 2.999 0.78422 0.6535 2.0056 1.0724 3.2679 1.0724 1.2623 0 2.4837-0.41885 3.2679-1.0724 0.78421-0.65352 1.2773-1.4401 1.2773-2.999v-17.041z" fill="#4752c4" stop-color="#000000" stroke-linecap="round" stroke-linejoin="round" stroke-width=".43828" style="paint-order:markers stroke fill"/><path d="m33.236 30.48c-2.8118-0.37963-5.0436-1.8207-6.0578-3.9115-0.65604-1.3524-0.71068-1.8458-0.71317-6.4357-0.0022-3.5692 0.05286-4.6154 0.28542-5.4521 0.58412-2.1015 2.2572-3.7386 4.6459-4.546 1.159-0.39176 1.6636-0.46443 3.1912-0.45944 1.282 0.00418 1.4628 0.02088 2.1091 0.19487 2.0825 0.5605 3.6903 1.861 4.7856 3.8712l0.29842 0.54757-2.0987 0.84584-2.0987 0.84581-0.14504-0.20694c-0.43888-0.62611-1.2637-1.1575-2.0626-1.3288-0.55861-0.11979-1.6667-0.04583-2.1648 0.14451-0.75807 0.28969-1.3404 0.85348-1.5022 1.4544-0.04776 0.17735-0.06686 1.6611-0.05374 4.1775 0.02 3.8517 0.0224 3.9063 0.17694 4.195 0.66415 1.2408 2.7293 1.713 4.2032 0.96107 0.40328-0.20573 0.89887-0.67776 1.1231-1.0697 0.1031-0.18025 0.19577-0.33905 0.20588-0.35292 0.01011-0.01385 1.0214 0.43697 2.2474 1.0019l2.229 1.0271-0.1135 0.22056c-0.47957 0.93195-1.7111 2.3162-2.5812 2.9011-0.89456 0.60144-1.9701 1.0607-3.0021 1.2819-0.63903 0.13695-2.2097 0.18716-2.9076 0.09293zm93.681 0.04662c-0.0593-0.01429-0.35055-0.06552-0.64718-0.11352-1.1382-0.18425-2.5707-0.81959-3.6078-1.6001-0.52524-0.3953-1.9291-1.7824-1.9291-1.906 0-0.03561 0.71358-0.73453 1.5858-1.5532l1.5858-1.4884 0.37249 0.3349c1.1374 1.0226 2.485 1.5557 3.9344 1.5566 1.4966 0.0022 2.373-0.5818 2.373-1.5778 0-0.91358-1.0252-1.5232-3.2932-1.9583-2.2978-0.44078-3.6406-1.0938-4.8275-2.3477-1.1155-1.1785-1.6394-2.646-1.563-4.3784 0.043-0.97435 0.16393-1.494 0.52252-2.2449 0.79702-1.6689 2.5633-2.9116 4.8468-3.4099 0.62011-0.13535 0.97349-0.16498 1.9775-0.16581 1.3444-0.0022 1.9589 0.082071 2.9228 0.39583 1.3202 0.4297 2.4375 1.146 3.4647 2.2213l0.5586 0.58468-1.4237 1.095c-0.78304 0.60228-1.5392 1.1828-1.6802 1.29l-0.25654 0.19491-0.42658-0.36288c-1.2467-1.0606-2.9242-1.5121-4.1456-1.1156-1.2868 0.4177-1.7085 1.8346-0.78671 2.6439 0.36864 0.32365 1.1562 0.66672 1.9529 0.85074 2.7317 0.63085 3.5011 0.88382 4.5653 1.5009 0.67657 0.39227 1.5441 1.2276 1.8967 1.8262 0.72846 1.2368 0.99914 3.3108 0.62151 4.7629-0.73253 2.8169-3.8264 4.8503-7.5509 4.9628-0.51415 0.01538-0.98334 0.01648-1.0427 0.0022zm53.586-0.04662c-2.8132-0.37983-5.05-1.8247-6.0554-3.9115-0.67882-1.409-0.74317-2.0719-0.69787-7.1908 0.0366-4.138 0.0515-4.2925 0.5177-5.38 0.37071-0.86478 0.66888-1.3149 1.2953-1.9555 0.91399-0.9347 1.9563-1.5537 3.3077-1.9646 1.2275-0.37319 1.4836-0.40772 2.9842-0.4026 1.2858 0.0044 1.4618 0.020881 2.1213 0.19768 2.0677 0.55467 3.6792 1.8606 4.7732 3.8682l0.2982 0.54718-4.195 1.6951-0.14612-0.20826c-0.45075-0.64244-1.252-1.1624-2.0445-1.327-0.58804-0.1221-1.6793-0.05148-2.1838 0.1413-0.75807 0.28969-1.3404 0.85348-1.5022 1.4544-0.0478 0.17735-0.0668 1.6611-0.0537 4.1775 0.02 3.8517 0.0224 3.9063 0.17693 4.195 0.66413 1.2408 2.7293 1.713 4.2032 0.96107 0.40326-0.20573 0.89887-0.67776 1.1231-1.0697 0.10313-0.18025 0.19646-0.33974 0.2074-0.35444 0.011-0.01473 1.0221 0.43653 2.2469 1.0027l2.227 1.0295-0.11306 0.21971c-0.47913 0.93109-1.7111 2.3156-2.5808 2.9003-0.89456 0.60144-1.9701 1.0607-3.0021 1.2819-0.63901 0.13695-2.2097 0.18716-2.9076 0.09293zm-180.5-10.388v-10.179l4.8358 0.02809c4.6634 0.027101 4.8608 0.033738 5.5376 0.18595 2.3235 0.52258 3.7849 1.5606 4.621 3.2826 0.59714 1.2297 0.83201 2.6756 0.68391 4.2109-0.27272 2.8277-1.4538 4.6968-3.4592 5.4744-0.23443 0.09093-0.42627 0.18878-0.42627 0.21749 0 0.02873 1.2017 1.5659 2.6704 3.416 1.4687 1.8501 2.7023 3.4042 2.7413 3.4537 0.05651 0.07163-0.57947 0.08987-3.1305 0.08987h-3.2014l-4.7145-6.4717h-0.90896v6.4717h-5.2493zm9.23-0.8967c0.49027-0.18342 0.96879-0.59953 1.1833-1.029 0.65881-1.3192 0.087852-2.8061-1.2664-3.2981-0.28375-0.10308-0.62459-0.12333-2.1179-0.12583l-1.7797-0.0031v4.6021h1.795c1.6287 0 1.8312-0.01363 2.1857-0.14623zm9.3941 0.90124v-10.175h5.1054v20.35h-5.1054zm25.096 0v-10.175h5.1773v7.6941h5.8964v-7.6941h5.1774v20.35h-5.1774v-7.6941h-5.8964v7.6941h-5.1773zm24.664-0.0042v-10.179l4.7279 0.027826c5.1874 0.030507 5.084 0.022551 6.3796 0.49131 2.8166 1.0192 4.6298 3.8733 4.4724 7.0396-0.16293 3.2772-2.1982 5.8322-5.2724 6.6184-0.71932 0.18399-2.0426 0.28476-3.7385 0.28476h-1.3917v5.8964h-5.1774zm9.1323-0.50713c1.4188-0.66554 1.7991-2.8297 0.72616-4.1313-0.1142-0.13856-0.38092-0.34789-0.59274-0.46522l-0.3851-0.21331-3.7032-0.04477v5.0513l1.8157-0.02246c1.6705-0.02066 1.8416-0.03457 2.1393-0.17425zm8.6289 0.51133v-10.175h4.3892c2.646 0 4.6639 0.030639 5.0808 0.077126 3.3723 0.37602 5.4582 2.1002 6.0826 5.0276 0.19005 0.89107 0.20122 2.546 0.0235 3.4882-0.32049 1.6996-1.019 3.005-2.0402 3.813-0.41422 0.32776-1.4573 0.89694-1.6436 0.89694-0.05473 0-0.09954 0.0315-0.09954 0.06998 0 0.03851 1.2019 1.5836 2.6709 3.4336 1.469 1.85 2.7026 3.404 2.7413 3.4535 0.0561 0.07163-0.57999 0.0899-3.1297 0.0899h-3.2001l-4.7164-6.4717h-0.90962v6.4717h-5.2493zm9.23-0.90124c0.49027-0.18342 0.96877-0.59953 1.1832-1.029 0.65883-1.3192 0.08787-2.8061-1.2664-3.2981-0.28373-0.10306-0.62454-0.12333-2.1179-0.12583l-1.7797-0.0031v4.6021h1.795c1.6287 0 1.8312-0.01363 2.1858-0.14621zm9.3941 0.90129v-10.175h14.166v4.8178h-8.9885v3.164h8.2694v4.4583h-8.2694v3.0201h8.9885v4.8897h-14.166zm33.149 0v-10.175h14.166v4.8178h-8.9885v3.164h8.2694v4.4583h-8.2694v3.019l8.9525 0.03692 0.0189 2.4269 0.0189 2.4269h-14.168zm16.898 0v-10.175h4.8731l2.3722 4.1886c1.3048 2.3038 2.4374 4.3181 2.517 4.4763 0.0796 0.15821 0.49197 1.1128 0.91632 2.1213 0.75607 1.7969 0.85751 2.0065 0.93384 1.9301 0.0207-0.02066-0.0829-0.74666-0.23028-1.6131l-0.26801-1.5754-0.0222-4.7639-0.0222-4.7639h5.1094v20.352l-5.1953-0.0378-2.31-4.0319c-2.1681-3.7841-2.3631-4.1542-3.173-6.0212-0.47619-1.0978-0.90378-1.9898-0.95413-1.9904-0.0578 0-0.0777 0.05829-0.0543 0.16074 0.0202 0.089 0.16656 0.9441 0.32494 1.9003l0.28802 1.7384v8.28h-5.1054zm36.17 0v-10.175h14.166v4.8178h-8.9885v3.164h8.2694v4.4583h-8.2694v3.0201h8.9885v4.8897h-14.166z" fill="#2e3338" stroke-width=".085653"/></g></g><metadata><rdf:RDF><cc:Work rdf:about=""><dc:creator><cc:Agent><dc:title>NinStar</dc:title></cc:Agent></dc:creator></cc:Work></rdf:RDF></metadata></svg>
