<?xml version="1.0" encoding="UTF-8" standalone="no"?>
<!-- Created with Inkscape (http://www.inkscape.org/) -->

<svg
   width="24"
   height="24"
   viewBox="0 0 24 24"
   version="1.1"
   id="SVGRoot"
   xml:space="preserve"
   xmlns="http://www.w3.org/2000/svg"
   xmlns:svg="http://www.w3.org/2000/svg"
   xmlns:rdf="http://www.w3.org/1999/02/22-rdf-syntax-ns#"
   xmlns:cc="http://creativecommons.org/ns#"
   xmlns:dc="http://purl.org/dc/elements/1.1/"><defs
     id="defs1725" /><metadata
     id="metadata2103"><rdf:RDF><cc:Work
         rdf:about=""><dc:creator><cc:Agent><dc:title>NinStar</dc:title></cc:Agent></dc:creator></cc:Work></rdf:RDF></metadata><path
     id="path1434"
     style="display:inline;fill:#4f5660;fill-opacity:1;stroke:none;stroke-width:1.85322;stroke-linecap:butt;stroke-linejoin:miter;stroke-miterlimit:4;stroke-dasharray:none;stroke-dashoffset:9.6;stroke-opacity:1;paint-order:markers stroke fill"
     d="M 12.191587,4.6541001 C 11.297327,4.6734518 10.399119,4.8575395 9.5420382,5.212553 7.0282906,6.2537856 5.3185613,8.596369 5.0495954,11.265563 H 3.7 L 6.2254491,15.640111 8.750897,11.265563 H 7.0445132 C 7.3017618,9.3973863 8.5256044,7.7820143 10.302156,7.0461403 c 2.005956,-0.8308941 4.306744,-0.3718477 5.842038,1.163444 1.535292,1.535292 1.994338,3.8360827 1.163444,5.8420377 -0.830897,2.005956 -2.783488,3.310385 -4.95472,3.310385 v 1.98561 c 2.968633,0 5.652256,-1.793221 6.788307,-4.535879 C 20.277267,12.069079 19.648774,8.9032823 17.549633,6.8041443 16.106475,5.3609846 14.158959,4.6115387 12.191587,4.6541001 Z m 0.145819,4.1232442 c -0.44929,0 -0.809758,0.360468 -0.809758,0.809757 v 3.2080017 c 0,0.449289 0.360468,0.809756 0.809758,0.809756 h 3.208001 c 0.44929,0 0.809758,-0.360467 0.809758,-0.809756 0,-0.449289 -0.360468,-0.809757 -0.809758,-0.809757 H 13.147163 V 9.5871013 c 0,-0.449289 -0.360468,-0.809757 -0.809757,-0.809757 z" /></svg>
