<?xml version="1.0" encoding="UTF-8"?>
<svg id="a" width="24" height="24" version="1.1" viewBox="0 0 24 24" xmlns="http://www.w3.org/2000/svg" xmlns:cc="http://creativecommons.org/ns#" xmlns:dc="http://purl.org/dc/elements/1.1/" xmlns:rdf="http://www.w3.org/1999/02/22-rdf-syntax-ns#"><g transform="translate(-77.7 -31.387)"><g transform="matrix(1.0517 0 0 1.0517 -349.58 -269.69)" stroke="#72767d" stroke-width=".95083"><path transform="matrix(.95083 0 0 .95083 411.02 291.02)" d="m5.7578 0c-3.1744 0-5.7578 2.5834-5.7578 5.7578s2.5834 5.7578 5.7578 5.7578c1.4077 0 2.6977-0.50926 3.6992-1.3516l3.8359 3.8359 0.70703-0.70703-3.8359-3.8359c0.8423-1.0015 1.3516-2.2915 1.3516-3.6992 0-3.1744-2.5834-5.7578-5.7578-5.7578zm0 1c2.634 0 4.7598 2.1238 4.7598 4.7578s-2.1258 4.7598-4.7598 4.7598-4.7578-2.1258-4.7578-4.7598 2.1238-4.7578 4.7578-4.7578z" color="#000000" fill="#72767d" stroke="none" style="-inkscape-stroke:none;paint-order:markers stroke fill"/></g></g><metadata><rdf:RDF><cc:Work rdf:about=""><dc:creator><cc:Agent><dc:title>NinStar</dc:title></cc:Agent></dc:creator></cc:Work></rdf:RDF></metadata></svg>
