<?xml version="1.0" encoding="UTF-8"?>
<svg id="a" width="24" height="24" version="1.1" viewBox="0 0 24 24" xmlns="http://www.w3.org/2000/svg" xmlns:cc="http://creativecommons.org/ns#" xmlns:dc="http://purl.org/dc/elements/1.1/" xmlns:rdf="http://www.w3.org/1999/02/22-rdf-syntax-ns#"><g transform="translate(-77.139 -30.827)" fill="#4f5660"><g transform="matrix(.8 0 0 .8 285.14 -133.17)" fill="#4f5660" stroke-width="1.25"><path transform="matrix(1.25,0,0,1.25,-260,205)" d="m12 5c-0.50695 0-1.0121 0.72263-1.3984 2.1504-0.43636 0.12703-0.8486 0.3094-1.2285 0.54297-0.8634-1.0574-1.8724-1.0749-2.2422-0.50195-0.50136 0.40382-0.44774 1.3535 0.56445 2.1797-0.23423 0.38054-0.41763 0.79323-0.54492 1.2305-2.8555 0.77263-2.8555 2.0242 0 2.7969 0.12703 0.43636 0.3094 0.8486 0.54297 1.2285-1.0348 0.84509-1.0734 1.8288-0.53711 2.2168 0.38801 0.53631 1.3717 0.4977 2.2168-0.53711 0.37991 0.23356 0.79215 0.41593 1.2285 0.54297 0.77263 2.8555 2.0242 2.8555 2.7969 0 0.43724-0.12729 0.84992-0.31069 1.2305-0.54492 0.82619 1.0122 1.7759 1.0658 2.1797 0.56445 0.57291-0.36982 0.55542-1.3788-0.50195-2.2422 0.23356-0.37991 0.41593-0.79215 0.54297-1.2285 2.8555-0.77263 2.8555-2.0242 0-2.7969-0.12703-0.43636-0.3094-0.8486-0.54297-1.2285 1.0341-0.84412 1.0629-1.8179 0.52539-2.2051-0.38716-0.53753-1.361-0.50872-2.2051 0.52539-0.37991-0.23357-0.79215-0.41593-1.2285-0.54297-0.38632-1.4278-0.89149-2.1504-1.3984-2.1504zm0 4.4492c1.4231 0 2.5508 1.1277 2.5508 2.5508s-1.1277 2.5508-2.5508 2.5508-2.5508-1.1277-2.5508-2.5508 1.1277-2.5508 2.5508-2.5508z" fill="#4f5660" style="paint-order:markers stroke fill"/></g></g><metadata><rdf:RDF><cc:Work rdf:about=""><dc:creator><cc:Agent><dc:title>NinStar</dc:title></cc:Agent></dc:creator></cc:Work></rdf:RDF></metadata></svg>
