<?xml version="1.0" encoding="UTF-8"?>
<svg id="a" width="24" height="24" version="1.1" viewBox="0 0 24 24" xml:space="preserve" xmlns="http://www.w3.org/2000/svg" xmlns:cc="http://creativecommons.org/ns#" xmlns:dc="http://purl.org/dc/elements/1.1/" xmlns:rdf="http://www.w3.org/1999/02/22-rdf-syntax-ns#"><metadata><rdf:RDF><cc:Work rdf:about=""><dc:creator><cc:Agent><dc:title>NinStar</dc:title></cc:Agent></dc:creator></cc:Work></rdf:RDF></metadata><path d="m11.809 6.8736c-3.3954 0.096593-6.7273 1.8815-8.8094 4.9818 2.0017 3.7418 6.1254 5.2952 9.1226 5.275 2.9972-0.02028 6.5402-1.6523 8.8774-5.1096-2.3362-3.6523-5.7952-5.2438-9.1906-5.1472zm0.19058 1.4759a3.6505 3.6505 0 0 1 3.6505 3.6505 3.6505 3.6505 0 0 1-3.6505 3.6505 3.6505 3.6505 0 0 1-3.6505-3.6505 3.6505 3.6505 0 0 1 3.6505-3.6505zm0 1.6848a1.9656 1.9656 0 0 0-1.9656 1.9656 1.9656 1.9656 0 0 0 1.9656 1.9656 1.9656 1.9656 0 0 0 1.9656-1.9656 1.9656 1.9656 0 0 0-1.9656-1.9656z" fill="#4f5660"/></svg>
